<?xml version="1.0" standalone="no"?>
<!DOCTYPE svg PUBLIC "-//W3C//DTD SVG 1.1//EN" "http://www.w3.org/Graphics/SVG/1.1/DTD/svg11.dtd">
<svg xmlns="http://www.w3.org/2000/svg">
<metadata>Copyright (C) 2015 by original authors @ fontello.com</metadata>
<defs>
<font id="fontello" horiz-adv-x="1000" >
<font-face font-family="fontello" font-weight="400" font-stretch="normal" units-per-em="1000" ascent="850" descent="-150" />
<missing-glyph horiz-adv-x="1000" />
<glyph glyph-name="twitter" unicode="&#xe800;" d="m904 622q-37-54-90-93 0-8 0-23 0-73-21-145t-64-139-103-117-144-82-181-30q-151 0-276 81 19-3 43-3 126 0 224 77-59 2-105 36t-64 89q19-2 34-2 24 0 48 6-63 13-104 62t-41 115v2q38-21 82-23-37 25-59 64t-22 86q0 49 25 91 68-83 164-133t208-55q-5 21-5 41 0 75 53 127t127 53q79 0 132-57 61 12 114 44-20-64-79-100 52 6 104 28z" horiz-adv-x="928.6" />
<glyph glyph-name="instagramm" unicode="&#xe801;" d="m760 54v362h-75q11-35 11-73 0-71-36-130t-97-94-134-35q-110 0-188 76t-78 183q0 38 11 73h-79v-362q0-14 10-24t25-10h596q14 0 24 10t10 24z m-158 298q0 69-51 118t-122 49q-71 0-121-49t-51-118 51-118 121-49q72 0 122 49t51 118z m158 201v92q0 15-11 27t-27 11h-98q-16 0-27-11t-11-27v-92q0-17 11-28t27-11h98q16 0 27 11t11 28z m97 116v-638q0-45-32-77t-78-33h-637q-45 0-78 33t-32 77v638q0 45 32 77t78 33h637q45 0 78-33t32-77z" horiz-adv-x="857.1" />
<glyph glyph-name="facebook" unicode="&#xe802;" d="m535 843v-147h-87q-48 0-65-20t-17-60v-106h164l-22-165h-142v-424h-171v424h-142v165h142v122q0 104 58 161t155 57q82 0 127-7z" horiz-adv-x="571.4" />
<glyph glyph-name="right-dir" unicode="&#xe803;" d="m321 350q0-14-10-25l-250-250q-11-11-25-11t-25 11-11 25v500q0 15 11 25t25 11 25-11l250-250q10-10 10-25z" horiz-adv-x="357.1" />
<glyph glyph-name="angle-right" unicode="&#xe804;" d="m332 314q0-7-6-13l-260-260q-5-5-12-5t-13 5l-28 28q-6 6-6 13t6 13l219 219-219 220q-6 5-6 12t6 13l28 28q5 6 13 6t12-6l260-260q6-5 6-13z" horiz-adv-x="357.1" />
<glyph glyph-name="star" unicode="&#xe805;" d="m317 285l-46-195c-2-8 1-16 7-21 7-4 16-5 22-1l176 104 175-104c3-1 7-2 10-2 4 0 8 1 12 3 6 5 9 13 8 21l-47 195 155 131c6 6 8 14 6 22-3 7-10 13-18 14l-204 16-79 185c-3 8-10 13-18 13s-16-5-19-13l-79-185-204-16c-8-1-15-6-17-14-3-8 0-16 6-22l154-131z m76 145c8 0 14 5 17 12l66 153 65-153c3-7 10-12 17-12l168-14-127-108c-6-5-9-13-7-20l39-161-145 86c-6 4-14 4-20 0l-145-86 38 161c2 7-1 15-6 20l-127 108 167 14z" horiz-adv-x="1000" />
<glyph glyph-name="arrow" unicode="&#xe806;" d="m311 33c4-4 9-6 14-6s11 2 15 6l300 300c7 8 7 21 0 29l-300 300c-8 7-21 7-29 0s-8-21 0-29l286-286-286-285c-8-8-8-21 0-29z" horiz-adv-x="1000" />
<glyph glyph-name="check-mark" unicode="&#xe807;" d="m805 557l-385-385-186 185c-8 8-21 8-29 0s-7-20 0-28l200-200c4-4 9-6 15-6s10 2 14 6l400 400c7 8 7 21 0 28s-21 8-29 0z" horiz-adv-x="1000" />
<glyph glyph-name="magnifying-glass" unicode="&#xe808;" d="m415 198c58 0 112 20 155 57l211-211c4-4 9-6 14-6 5 0 10 2 14 6 8 8 8 20 0 28l-210 212c78 94 74 235-15 324-45 45-105 70-169 70s-124-25-170-70c-93-94-93-246 0-340 46-45 106-70 170-70z m-141 382c37 37 88 58 141 58s103-21 141-58c78-79 78-206 0-284-38-38-88-58-141-58s-104 20-141 58c-78 78-78 205 0 284z" horiz-adv-x="1000" />
<glyph glyph-name="close" unicode="&#xe809;" d="m180 33c4-4 9-6 15-6 5 0 10 2 14 6l286 287 285-287c4-4 9-6 15-6 5 0 10 2 14 6 7 8 7 21 0 29l-286 285 286 286c7 8 7 21 0 29-8 7-21 7-29 0l-286-287-285 287c-8 7-21 7-29 0-7-8-7-21 0-29l286-286-286-285c-7-8-7-21 0-29z" horiz-adv-x="1000" />
<glyph glyph-name="download" unicode="&#xe80a;" d="m220 190c-11 0-20-9-20-20v-123c0-11 9-20 20-20h560c11 0 20 9 20 20v123c0 11-9 20-20 20s-20-9-20-20v-103h-520v103c0 11-9 20-20 20z m280 477c-11 0-20-8-20-20v-430l-127 123c-8 7-20 7-28-1-8-8-8-20 0-28l161-155c0 0 0 0 0 0l0 0c1-1 2-1 3-2 1-1 2-2 3-2 3-1 5-2 8-2s5 1 8 2c1 0 2 1 3 2 1 1 2 1 3 2l161 155c8 8 8 20 0 28-8 8-20 9-28 1l-127-123v430c0 12-9 20-20 20z" horiz-adv-x="1000" />
<glyph glyph-name="upload" unicode="&#xe80b;" d="m206 190c-11 0-20-9-20-20v-123c0-11 9-20 20-20h560c11 0 20 9 20 20v123c0 11-9 20-20 20s-20-9-20-20v-103h-520v103c0 11-9 20-20 20z m281-40c11 0 20 9 20 20v430l127-122c3-4 8-6 13-6 6 0 11 2 15 6 8 8 7 21-1 29l-160 155c0 0 0 0 0 0l0 0c-1 1-2 1-3 1-1 1-2 2-4 3-2 1-4 1-7 1 0 0 0 0 0 0s-1 0-1 0c-2 0-5 0-7-1-1-1-2-2-4-3-1 0-1 0-2-1l0 0c0 0 0 0 0 0l-161-155c-8-8-8-21 0-29 7-8 20-8 28 0l127 122v-430c0-11 9-20 20-20z" horiz-adv-x="1000" />
<glyph glyph-name="trash-bin" unicode="&#xe80c;" d="m206 566h62l29-509c0-11 9-19 20-19h378c11 0 20 8 20 19l29 509h62c11 0 20 9 20 20s-9 20-20 20h-75c-1 0-2-1-3-1-1 0-2 1-3 1h-105v52c0 11-9 20-20 20h-188c-11 0-20-9-20-20v-52h-105c-1 0-2-1-3-1-1 0-2 1-3 1h-75c-11 0-20-9-20-20s9-20 20-20z m226 72h148v-32h-148v32z m272-72l-28-488h-340l-28 488h396z m-297-450c0 0 1 0 1 0 11 0 19 10 19 21l-21 370c-1 12-11 20-21 19-11 0-20-10-19-21l21-370c0-11 9-19 20-19z m196 0c0 0 1 0 1 0 11 0 19 8 20 19l21 370c1 11-8 21-19 21-11 1-20-7-21-19l-21-370c0-11 8-21 19-21z m-97 0c11 0 20 9 20 20v370c0 11-9 20-20 20s-20-9-20-20v-370c0-11 9-20 20-20z" horiz-adv-x="1000" />
<glyph glyph-name="notifications" unicode="&#xe80d;" d="m601 703c-41 0-81-8-120-16-39-8-75-15-111-15-29 0-54 4-77 14-3 1-5 1-7 1 0 0-1 0-1 0 0 0 0 0-1 0-2 0-4 0-6-1-1 0-1 0-1-1-1 0-2 0-3-1-1-1-2-1-2-2-1 0-1 0-1-1-2-1-3-3-4-5 0-1 0-1-1-2 0-2-1-4-1-7v-271-329c0-11 9-20 20-20s20 9 20 20v302c20-6 42-8 65-8 40 0 80 8 119 16 39 8 75 15 112 15 28 0 53-5 77-14 6-3 13-2 18 2 6 3 9 10 9 16v271c0 9-5 16-12 19-29 12-59 17-92 17z m64-279c-20 5-42 8-64 8-41 0-81-8-120-16-38-8-75-15-111-15-24 0-45 3-65 9v230c20-6 42-8 65-8 40 0 80 8 119 16 39 8 75 15 112 15 23 0 44-3 64-9v-230z" horiz-adv-x="1000" />
<glyph glyph-name="mail" unicode="&#xe80e;" d="m836 175v360c0 10-8 18-18 19 0 0 0 0 0 0-1 0-1 1-2 1h-600c-1 0-1-1-2-1-1 0-2 0-4 0-1-1-2-1-3-2-1 0-2-1-3-2-1-1-2-2-3-3-1 0-1 0-1-1-1 0-1-1-1-2-1-1-1-2-2-3 0-2 0-3-1-4 0-1 0-2 0-2v-360c0-11 9-20 20-20h600c11 0 20 9 20 20z m-86 340l-235-162-235 162h470z m-514-320v302l268-185c3-2 7-3 11-3s8 1 12 3l269 186v-303h-560z" horiz-adv-x="1000" />
<glyph glyph-name="camera" unicode="&#xe80f;" d="m713 469l-15 85c-1 9-10 16-19 16h-260c-10 0-18-7-20-16l-14-85h-136c-11 0-20-9-20-20v-339c0-11 9-20 20-20h600c11 0 20 9 20 20v339c0 11-9 20-20 20h-136z m116-339h-560v299h133c9 0 18 7 19 16l15 85h226l14-85c2-9 10-16 20-16h133v-299z m-280 292c-66 0-120-53-120-119s54-119 120-119 120 54 120 119-54 119-120 119z m0-198c-44 0-80 36-80 79s36 79 80 79 80-35 80-79-36-79-80-79z" horiz-adv-x="1000" />
<glyph glyph-name="home" unicode="&#xe810;" d="m807 382l-300 218c-7 5-17 5-24 0l-300-218c-8-6-10-19-4-28 7-9 19-11 28-4l39 28v-274c0-11 9-20 20-20h162c11 0 20 9 20 20v188h94v-188c0-11 9-20 20-20h162c11 0 20 9 20 20v274l39-28c4-3 8-4 12-4 6 0 12 3 16 8 7 9 5 22-4 28z m-103-258h-122v188c0 11-8 20-20 20h-134c-11 0-20-9-20-20v-188h-122v283l209 152 209-152v-283z" horiz-adv-x="1000" />
<glyph glyph-name="label" unicode="&#xe811;" d="m498 661c-4 4-9 6-14 6l-259 0c-11 0-20-9-20-20l-1-260c0-6 2-11 6-15l340-339c3-4 8-6 14-6s10 2 14 6l260 260c8 7 8 20 0 28l-340 340z m66-586l-320 320 1 232 231 0 319-320-231-232z" horiz-adv-x="1000" />
<glyph glyph-name="key" unicode="&#xe812;" d="m283 240c52 0 95 40 105 91h290v-54c0-11 9-20 20-20s20 9 20 20v54h57v-86c0-11 9-20 20-20s20 9 20 20v106c0 11-9 20-20 20h-407c-8 53-52 94-105 94-60 0-108-50-108-112s48-113 108-113z m0 185c37 0 67-32 67-72 0-40-30-73-67-73s-68 33-68 73c0 40 30 72 68 72z" horiz-adv-x="1000" />
<glyph glyph-name="repeat" unicode="&#xe813;" d="m765 285c0 0 0 0-1 1 0 1-1 1-2 2 0 1-1 2-2 3-1 1-2 1-3 2-1 1-3 1-4 2 0 0-1 0-1 0-1 0-1 0-2 0-1 1-3 1-4 1-2-1-3-1-4-1-1 0-1 0-2 0l-113-43c-10-3-15-15-12-25 4-11 16-16 26-12l74 27c-37-85-120-143-215-143-107 0-200 74-227 180-2 10-13 17-24 14-11-3-17-14-15-24 32-124 141-210 266-210 110 0 207 66 251 166l36-70c3-7 10-11 18-11 3 0 6 1 9 3 10 5 13 17 8 27l-57 111z m-265 294c103 0 193-67 224-168 3-11 15-17 25-14 11 4 17 15 13 25-35 118-141 197-262 197-105 0-199-60-245-153l-32 69c-5 10-17 14-27 9-10-4-14-16-10-26l53-110c0-1 0-1 0-1 0 0 1-1 1-1 1-2 2-3 4-4 0-1 0-1 1-2 2-1 4-2 6-3 0 0 0 0 0 0 0 0 0 0 0 0 2 0 4-1 6-1 0 0 0 0 0 0s0 0 0 0c0 0 0 0 0 0 2 0 4 0 5 1l114 31c11 3 17 14 14 25-3 11-14 17-24 14l-76-21c39 81 119 133 210 133z" horiz-adv-x="1000" />
<glyph glyph-name="plus" unicode="&#xe814;" d="m182 330h280v-280c0-11 9-20 20-20s20 9 20 20v280h280c11 0 20 9 20 20s-9 20-20 20h-280v280c0 11-9 20-20 20s-20-9-20-20v-280h-280c-11 0-20-9-20-20s9-20 20-20z" horiz-adv-x="1000" />
<glyph glyph-name="minus" unicode="&#xe815;" d="m800 370h-600c-11 0-20-9-20-20s9-20 20-20h600c11 0 20 9 20 20s-9 20-20 20z" horiz-adv-x="1000" />
<glyph glyph-name="heart" unicode="&#xe816;" d="m461 65c3-5 9-7 14-7h0c6 0 12 2 15 7l264 295c27 32 41 73 41 115 0 101-84 183-187 183-51 0-98-20-133-55-35 35-82 55-133 55-103 0-187-82-187-183 0-42 15-83 42-116 3-3 202-226 264-294z m-119 553c47 0 89-21 117-57 8-10 24-10 32 0 28 36 71 57 117 57 81 0 147-64 147-143 0-33-11-64-31-89l-249-278c-91 102-243 272-248 277-21 26-32 57-32 90 0 79 66 143 147 143z" horiz-adv-x="1000" />
</font>
</defs>
</svg>
