<?xml version="1.0" encoding="utf-8"?>
<!-- Generator: Adobe Illustrator 16.0.0, SVG Export Plug-In . SVG Version: 6.00 Build 0)  -->
<!DOCTYPE svg PUBLIC "-//W3C//DTD SVG 1.1//EN" "http://www.w3.org/Graphics/SVG/1.1/DTD/svg11.dtd">
<svg version="1.1" id="Layer_1" xmlns="http://www.w3.org/2000/svg" xmlns:xlink="http://www.w3.org/1999/xlink" x="0px" y="0px"
	 viewBox="80 0 1503.435 52.498" enable-background="new 0 0 1653.435 52.498"
	 xml:space="preserve" shape-rendering="optimizeSpeed" stroke="#6c6861" vector-effect="non-scaling-stroke" stroke-width="1">
<path fill-rule="evenodd" clip-rule="evenodd" d="M-41.818,20.291c10.899-0.519,21.851-0.885,32.686-1.594
	c15.479-1.013,30.846-2.362,46.315-3.409c12.452-0.842,24.977-1.479,37.485-2.149c13.754-0.737,27.491-1.623,41.297-2.054
	c16.688-0.521,33.44-0.853,50.166-0.866c21.237-0.018,42.497,0.175,63.708,0.632c19.05,0.411,38.074,1.177,57.056,2.018
	c19.16,0.85,38.23,2.094,57.387,2.967c24.169,1.102,48.368,2.099,72.588,2.948c12.732,0.447,25.54,0.46,38.31,0.712
	c21.925,0.432,43.837,1.026,65.771,1.317c33.656,0.445,67.324,0.696,100.987,1.021c17.463,0.168,34.927,0.393,52.393,0.457
	c18.531,0.069,37.067-0.127,55.597-0.016c25.2,0.151,50.395,0.473,75.592,0.744c19.624,0.211,39.251,0.383,58.864,0.711
	c14.751,0.245,29.487,0.692,44.227,1.08c30.374,0.8,60.729,1.824,91.127,2.369c27.875,0.5,55.793,0.584,83.693,0.673
	c16.545,0.054,33.098-0.185,49.64-0.389c23.217-0.287,46.439-0.537,69.638-1.036c27.329-0.588,54.662-1.291,81.946-2.197
	c20.815-0.691,41.554-1.827,62.349-2.668c12.545-0.508,25.113-0.979,37.697-1.201c23.918-0.423,47.85-0.842,71.783-0.896
	c13.286-0.029,26.586,0.676,39.878,1.056c12.578,0.359,25.167,1.097,37.722,0.996c15.807-0.127,31.588-0.903,47.368-1.466
	c7.881-0.281,15.773-0.6,23.598-1.091c16.372-1.026,32.703-2.182,49.058-3.271c0.963-0.063,1.967-0.008,3.2,0.342
	c-0.793,0.203-1.545,0.54-2.377,0.587c-4.286,0.24-8.604,0.358-12.885,0.607c-15.865,0.921-31.697,1.955-47.582,2.801
	c-20.008,1.065-40.035,2.286-60.229,2.06c-14.38-0.161-28.731-0.819-43.103-1.194c-12.041-0.315-24.084-0.675-36.141-0.771
	c-12.95-0.104-25.918-0.041-38.866,0.165c-15.108,0.24-30.212,0.64-45.297,1.108c-16.695,0.519-33.378,1.155-50.054,1.813
	c-16.13,0.636-32.222,1.474-48.361,2.024c-16.866,0.575-33.766,0.998-50.668,1.333c-20.32,0.403-40.657,0.685-60.993,0.946
	c-28.609,0.367-57.219,0.771-85.835,0.962c-18.723,0.125-37.463,0.043-56.181-0.199c-22.136-0.287-44.267-0.764-66.383-1.312
	c-22.645-0.562-45.251-1.451-67.903-1.941c-29.85-0.646-59.722-1.107-89.592-1.526c-22.854-0.32-45.719-0.543-68.581-0.642
	c-18.542-0.079-37.092,0.202-55.634,0.118c-19.8-0.091-39.595-0.444-59.395-0.641c-14.223-0.142-28.453-0.174-42.676-0.324
	c-25.207-0.267-50.419-0.468-75.61-0.916c-29.68-0.527-59.355-1.166-89-1.997c-15.075-0.423-30.08-1.352-45.107-2.09
	c-15.926-0.782-31.828-1.664-47.763-2.404c-18.44-0.855-36.889-1.702-55.367-2.366c-13.991-0.503-28.026-0.844-42.057-1.022
	c-19.792-0.251-39.624-0.637-59.386-0.32c-22.817,0.364-45.601,1.313-68.352,2.238c-11.805,0.479-23.516,1.433-35.257,2.211
	C29.334,16.755,8.029,18.276-13.339,19.6c-9.432,0.584-18.982,0.793-28.479,1.172C-41.818,20.611-41.818,20.451-41.818,20.291z"/>
<path fill-rule="evenodd" clip-rule="evenodd" d="M-12.932,27.768c3.031,0.329,6.03,0.739,9.098,0.973
	c8.158,0.619,16.35,1.146,24.518,1.74c9.077,0.659,17.973-0.073,26.808-0.779c14.961-1.196,30.021-1.555,45.178-1.51
	c4.678,0.014,9.357-0.095,14.036-0.153c16.193-0.201,32.386-0.398,48.579-0.609c22.316-0.29,44.63-0.787,66.948-0.832
	c23.394-0.048,46.793,0.332,70.188,0.528c32.964,0.278,65.907,0.092,98.812-0.874c15.813-0.464,31.623-0.974,47.407-1.59
	c20.804-0.812,41.565-1.834,62.376-2.603c16.317-0.603,32.687-0.924,49.024-1.432c20.535-0.639,41.074-0.447,61.535,0.299
	c24.214,0.884,48.34,2.226,72.539,3.205c19.185,0.777,38.412,1.362,57.633,1.937c32.028,0.956,64.099,0.623,96.148,0.362
	c38.531-0.314,77.038-0.138,115.508,0.753c20.849,0.483,41.652,1.384,62.446,2.24c17.372,0.716,34.712,1.608,52.052,2.481
	c15.553,0.783,31.063,1.759,46.636,2.444c16.12,0.709,32.28,1.252,48.449,1.724c20.836,0.607,41.699,1.036,62.54,1.608
	c19.938,0.547,39.862,1.197,59.796,1.765c8.803,0.25,17.623,0.367,26.426,0.616c11.677,0.331,23.33,0.846,35.017,1.078
	c17.972,0.356,35.962,0.618,53.954,0.771c12.234,0.104,24.489,0.045,36.724-0.106c12.236-0.151,24.471-0.427,36.683-0.796
	c19.394-0.588,38.77-1.307,58.153-1.954c13.622-0.454,27.24-1.073,40.884-1.266c12.754-0.179,25.541,0.139,38.315,0.176
	c5.751,0.017,11.504-0.122,17.256-0.182c2.518-0.025,5.116-0.212,7.542-0.009c8.114,0.681,15.585-0.099,23.159-1.366
	c6.196-1.036,12.765-1.65,19.213-2.369c2.038-0.227,4.227-0.187,5.709-0.244c-10.45,1.53-21.391,3.151-32.374,4.722
	c-1.832,0.262-3.829,0.424-5.751,0.424c-11.148,0.003-22.298-0.05-33.444-0.097c-9.353-0.039-18.716-0.234-28.056-0.111
	c-14.025,0.186-28.051,0.518-42.062,0.916c-25.859,0.735-51.687,1.76-77.566,2.298c-25.346,0.527-50.739,0.817-76.112,0.799
	c-18.342-0.013-36.688-0.655-55.024-1.103c-14.558-0.355-29.103-0.818-43.648-1.271c-16.168-0.505-32.32-1.076-48.491-1.572
	c-9.521-0.292-19.058-0.489-28.586-0.737c-17.254-0.45-34.522-0.795-51.753-1.387c-22.783-0.783-45.56-1.645-68.289-2.689
	c-22.734-1.045-45.362-2.567-68.117-3.5c-26.352-1.08-52.781-1.807-79.192-2.574c-32.366-0.94-64.792-0.896-97.204-0.87
	c-25.57,0.019-51.153,0.576-76.704,0.339c-34.922-0.326-69.763-1.345-104.468-3.366c-33.399-1.945-67.006-3.09-100.739-2.894
	c-12.77,0.074-25.533,0.551-38.289,0.914c-14.01,0.399-28.023,0.801-42.006,1.344c-18.117,0.704-36.189,1.642-54.312,2.306
	c-19.56,0.718-39.138,1.476-58.741,1.781c-26.085,0.408-52.205,0.536-78.308,0.524c-24.306-0.01-48.609-0.48-72.916-0.518
	c-16.376-0.025-32.756,0.361-49.136,0.542c-14.403,0.158-28.809,0.255-43.209,0.438c-9.538,0.121-19.065,0.364-28.601,0.519
	c-12.413,0.201-24.848,0.242-37.238,0.599c-7.518,0.217-14.996,0.822-22.439,1.392c-9.725,0.744-19.381,0.547-29.039-0.139
	c-6.752-0.479-13.499-0.98-20.219-1.541c-1.971-0.165-3.842-0.567-5.76-0.861C-13.269,28.202-13.102,27.984-12.932,27.768z"/>
<path fill-rule="evenodd" clip-rule="evenodd" d="M64.627,19.374c10.065,0.153,20.126,0.375,30.192,0.448
	c21.067,0.154,42.136,0.272,63.205,0.33c37.45,0.104,74.903,0.023,112.347,0.265c28.437,0.184,56.861,0.743,85.291,1.141
	c13.858,0.194,27.72,0.349,41.569,0.615c19.607,0.379,39.202,0.882,58.808,1.256c8.454,0.16,16.93,0.079,25.389,0.196
	c23.756,0.33,47.515,0.64,71.26,1.082c28.236,0.525,56.474,1.084,84.686,1.812c22.644,0.585,45.25,1.46,67.878,2.176
	c13.287,0.42,26.593,0.727,39.876,1.18c12.202,0.416,24.378,0.979,36.574,1.442c16.68,0.636,33.378,1.195,50.051,1.868
	c16.125,0.651,32.229,1.423,48.35,2.109c13.972,0.596,27.946,1.187,41.931,1.711c25.824,0.97,51.648,1.93,77.488,2.812
	c13.1,0.448,26.222,0.807,39.348,1.055c31.113,0.587,62.229,1.196,93.355,1.583c24.464,0.304,48.948,0.37,73.422,0.389
	c21.598,0.017,43.213-0.016,64.798-0.322c25.189-0.357,50.372-0.938,75.531-1.608c18.855-0.502,37.691-1.219,56.504-1.983
	c21.504-0.875,43.009-1.777,64.446-2.913c19.297-1.022,38.491-2.404,57.75-3.579c25.478-1.556,50.994-3,76.451-4.628
	c9.946-0.637,19.802-1.585,29.646-2.5c10.369-0.963,20.678-2.057,31.012-3.093c1.004-0.101,2.013-0.189,3.02-0.284
	c0.145,0.153,0.29,0.306,0.436,0.458c-1.108,0.221-2.174,0.538-3.338,0.646c-13.72,1.284-27.389,2.714-41.205,3.755
	c-18.973,1.431-38.066,2.553-57.104,3.825c-8.364,0.559-16.695,1.223-25.072,1.736c-17.997,1.104-36.018,2.136-54.022,3.206
	c-11.238,0.668-22.446,1.452-33.715,2.006c-14.133,0.693-28.304,1.232-42.472,1.783c-15.064,0.587-30.14,1.119-45.213,1.657
	c-11.302,0.404-22.596,0.957-33.918,1.139c-35.636,0.571-71.274,1.187-106.923,1.421c-25.918,0.171-51.856-0.165-77.786-0.404
	c-22.134-0.204-44.265-0.555-66.39-0.914c-17.812-0.29-35.626-0.586-53.412-1.072c-14.721-0.403-29.398-1.112-44.102-1.645
	c-11.123-0.401-22.267-0.712-33.394-1.106c-20.459-0.726-40.92-1.436-61.363-2.241c-25.271-0.995-50.513-2.126-75.785-3.118
	c-27.797-1.092-55.599-2.175-83.423-3.11c-32.139-1.081-64.284-2.175-96.465-2.938c-37.573-0.891-75.188-1.462-112.789-2.114
	c-30.407-0.527-60.824-0.951-91.231-1.453c-28.249-0.466-56.491-1.021-84.742-1.451c-25.911-0.395-51.826-0.771-77.746-0.982
	c-26.821-0.218-53.652-0.246-80.478-0.321c-28.452-0.081-56.906-0.044-85.355-0.213c-11.13-0.066-22.248-0.553-33.372-0.848
	C64.495,19.547,64.561,19.46,64.627,19.374z"/>
</svg>
