<?xml version="1.0" encoding="utf-8"?>
<!-- Generator: Adobe Illustrator 16.0.0, SVG Export Plug-In . SVG Version: 6.00 Build 0)  -->
<!DOCTYPE svg PUBLIC "-//W3C//DTD SVG 1.1//EN" "http://www.w3.org/Graphics/SVG/1.1/DTD/svg11.dtd">
<svg version="1.1" id="Layer_1" xmlns="http://www.w3.org/2000/svg" xmlns:xlink="http://www.w3.org/1999/xlink" x="0px" y="0px"
	 viewBox="50 0 1503.435 52.498" enable-background="new 0 0 1653.435 52.498"
	 xml:space="preserve" shape-rendering="optimizeSpeed" stroke="#6c6861" vector-effect="non-scaling-stroke" stroke-width="1">
<g>
	<path fill-rule="evenodd" clip-rule="evenodd" d="M1641.95,30.571c-2.357,0.054-4.717,0.088-7.07,0.164
		c-6.42,0.209-12.881,0.296-19.246,0.681c-19.746,1.191-39.512,2.463-59.475,2.311c-15.832-0.121-31.658-0.39-47.502-1.016
		c-18.439-0.729-36.496-2.292-54.697-3.517c-18.768-1.262-37.318-3.104-56.035-4.515c-26.258-1.977-52.658-2.858-79.361-1.97
		c-15.193,0.505-29.896,1.92-44.525,3.567c-18.027,2.031-35.855,4.401-53.963,6.281c-18.834,1.957-37.988,3.238-57.338,3.894
		c-10.482,0.354-20.934,0.958-31.428,1.161c-17.512,0.341-35.059,0.719-52.572,0.593c-23.236-0.168-46.455-0.815-69.686-1.237
		c-10.506-0.191-21.027-0.266-31.525-0.518c-11.602-0.277-23.184-0.719-34.779-1.048c-22.275-0.634-44.549-1.255-66.828-1.851
		c-13.627-0.363-27.27-0.646-40.898-1.01c-22.649-0.604-45.291-1.241-67.936-1.867c-11.787-0.326-23.583-0.595-35.356-0.996
		c-26.108-0.89-52.202-1.864-78.306-2.771c-16.554-0.574-33.131-1.031-49.678-1.645c-23.343-0.863-46.66-1.858-70.002-2.729
		c-24.261-0.904-48.523-1.812-72.812-2.555c-17.669-0.541-35.372-0.918-53.075-1.181c-13.641-0.202-27.308-0.079-40.961-0.159
		c-21.036-0.123-42.071-0.413-63.107-0.416c-22.696-0.004-45.39,0.365-68.084,0.344c-25.643-0.025-51.286-0.287-76.928-0.479
		c-25.14-0.188-49.935-2.021-74.909-3.007c-10.287-0.406-20.555-0.962-30.862-1.178c-11.969-0.251-24.037-0.365-34.971,2.883
		c-0.631-1.312,1.228-1.602,2.725-1.911c6.089-1.256,12.596-1.863,19.281-1.851c8.841,0.016,17.715,0.055,26.513,0.391
		c18.19,0.696,36.386,1.436,54.491,2.453c20.918,1.175,41.917,1.47,62.942,1.592c22.308,0.13,44.619,0.163,66.927,0.139
		c12.54-0.015,25.081-0.324,37.621-0.333c13.46-0.009,26.922,0.219,40.385,0.271c21.209,0.082,42.423,0.042,63.632,0.175
		c13.095,0.082,26.193,0.305,39.271,0.612c21.903,0.517,43.825,0.992,65.683,1.777c25.167,0.903,50.258,2.205,75.415,3.18
		c17.818,0.689,35.696,1.069,53.53,1.688c12.864,0.446,25.694,1.08,38.55,1.586c6.978,0.274,13.977,0.449,20.965,0.678
		c16.184,0.531,32.363,1.081,48.547,1.598c18.945,0.605,37.886,1.232,56.841,1.762c23.006,0.643,46.026,1.193,69.04,1.781
		c19.703,0.503,39.404,0.983,59.104,1.509c22.826,0.608,45.633,1.372,68.471,1.855c25.799,0.546,51.648,0.653,77.426,1.331
		c19.967,0.525,39.842-0.094,59.752-0.201c10.674-0.058,21.346-0.615,31.988-1.076c11.924-0.516,23.904-0.959,35.699-1.832
		c13.615-1.007,27.164-2.263,40.547-3.739c24.473-2.699,48.434-6.332,73.535-7.849c16.459-0.994,33.086-1.041,49.713-0.657
		c25.326,0.585,50.053,2.828,74.902,4.792c21.217,1.676,42.447,3.367,63.801,4.649c17.514,1.052,35.182,1.653,52.939,1.624
		c16.797-0.027,33.482-0.371,50.176-1.344c13.475-0.784,26.893-2.174,40.674-1.666c0.959,0.035,1.906,0.115,2.861,0.175
		C1641.97,30.154,1641.964,30.363,1641.95,30.571z"/>
	<g>
		<path fill-rule="evenodd" clip-rule="evenodd" d="M1641.331,19.074c-6.576-0.223-13.182-0.372-19.734-0.682
			c-15.994-0.754-31.971-0.592-47.986-0.098c-34.367,1.059-67.5,4.453-100.555,8.062c-27.029,2.952-54.711,4.592-82.447,6.092
			c-21.129,1.145-42.367,1.719-63.682,1.75c-18.855,0.026-37.711-0.012-56.562-0.133c-34.684-0.224-69.359-0.613-104.043-0.777
			c-38.949-0.184-77.91-0.127-116.859-0.309c-20.682-0.098-41.355-0.549-62.037-0.713c-37.117-0.296-74.236-0.6-111.357-0.695
			c-22.506-0.059-45.021,0.223-67.527,0.43c-23.516,0.219-47.023,0.641-70.541,0.775c-28.797,0.164-57.604,0.146-86.405,0.162
			c-15.824,0.008-31.652,0-47.47-0.148c-11.147-0.104-22.277-0.482-33.418-0.692c-19.656-0.371-39.341-0.571-58.969-1.097
			c-20.023-0.535-40.018-1.295-59.983-2.11c-12.904-0.526-25.775-1.228-38.585-2.032c-20.162-1.266-39.212-3.736-57.204-7.703
			c-10.896-2.403-22.757-4.22-34.601-5.824c-7.949-1.077-16.567-1.514-24.987-1.9c-20.663-0.947-41.313-0.179-61.919,0.482
			c-17.182,0.552-34.271,1.386-51.186,2.794c-21.435,1.786-43.158,2.891-64.941,3.784c-11.942,0.489-23.53,1.563-35.087,2.828
			c-6.974,0.763-14.309,1.032-21.51,1.442c-6.615,0.377-13.288,0.59-19.898,0.977c-13.057,0.762-25.827,0.329-38.372-1.251
			c-0.457-0.058-0.838-0.208-0.869-0.216c8.484,0.363,17.278,0.784,26.098,1.095c3,0.105,6.199,0.139,9.076-0.151
			c9.1-0.916,18.404-0.994,27.644-1.393c7.202-0.312,14.37-1.005,21.347-1.81c13.723-1.583,27.827-2.14,41.919-2.806
			c20.542-0.97,40.901-2.367,61.256-3.831c15.522-1.116,31.295-1.747,47.015-2.351c11.898-0.457,23.884-0.646,35.841-0.75
			c23.974-0.21,47.344,0.946,69.147,5.261c9.782,1.936,19.537,3.898,29.467,5.708c5.669,1.034,11.542,1.963,17.541,2.634
			c23.706,2.65,48.046,3.928,72.518,4.734c25.257,0.832,50.547,1.586,75.858,2.078c32.613,0.634,65.259,1.026,97.899,1.42
			c18.043,0.217,36.112,0.42,54.151,0.279c34.476-0.27,68.941-0.8,103.412-1.197c8.108-0.094,16.223-0.1,24.336-0.13
			c24.139-0.089,48.278-0.239,72.417-0.232c25.148,0.007,50.301,0.071,75.443,0.289c23.316,0.202,46.613,0.794,69.928,0.933
			c29.408,0.176,58.826-0.043,88.234,0.107c33.266,0.17,66.52,0.656,99.785,0.834c39.754,0.212,79.52,0.414,119.275,0.293
			c25.988-0.079,51.744-1.541,77.332-3.344c11.549-0.812,23.174-1.502,34.607-2.521c13.436-1.199,26.771-2.604,40.027-4.09
			c18.965-2.125,38.287-3.531,57.709-4.762c16.459-1.044,33.062-1.597,49.707-1.314c13.305,0.227,26.564,0.877,39.848,1.34
			C1641.399,18.757,1641.366,18.916,1641.331,19.074z"/>
		<path fill-rule="evenodd" clip-rule="evenodd" d="M1644.478,34.103c-4.32-0.206-8.629-0.479-12.965-0.606
			c-28.451-0.83-56.887-1.887-85.385-2.36c-24.547-0.407-49.17-0.252-73.754-0.134c-24.17,0.115-48.338,0.511-72.502,0.756
			c-35.279,0.357-70.557,0.777-105.84,1.001c-22.197,0.142-44.404-0.089-66.605-0.033c-13.672,0.034-27.34,0.3-41.008,0.447
			c-7.924,0.086-15.854,0.136-23.779,0.216c-26.145,0.264-52.289,0.566-78.434,0.789c-18.869,0.16-37.705-0.328-56.256-1.639
			c-20.854-1.473-41.535-3.35-62.24-5.146c-17.039-1.478-33.922-3.264-51.035-4.584c-10.27-0.793-20.814-1.181-31.277-1.352
			c-20.799-0.341-41.572,0.201-62.366,0.568c-31.273,0.553-62.518,1.515-93.894,1.124c-25.739-0.321-51.513-0.313-77.268-0.26
			c-8.68,0.019-17.347,0.653-26.03,0.957c-13.612,0.476-27.246,0.861-40.852,1.374c-13.605,0.512-27.173,1.185-40.783,1.684
			c-8.486,0.312-17.008,0.505-25.527,0.62c-25.977,0.355-51.953,0.147-77.869-0.578c-16.391-0.459-32.715-1.311-49.08-1.938
			c-19.715-0.756-39.453-1.424-59.165-2.199c-13.994-0.551-27.949-1.251-41.939-1.82c-13.993-0.57-28.005-1.07-42.011-1.584
			c-9.865-0.363-19.739-0.684-29.603-1.051c-23.523-0.877-47.094-1.054-70.69-0.771c-24.354,0.29-48.706,0.626-73.059,0.963
			c-3.562,0.05-7.108,0.242-10.667,0.326c-14.43,0.34-28.879,0.58-43.287,1.03c-6.464,0.202-12.849,0.815-19.302,1.231
			c-0.029-0.011,0.071,0.027,0.071,0.027c1.526-1.222,4.668-1.094,7.17-1.197c10.038-0.417,20.114-0.697,30.179-0.999
			c5.922-0.178,11.847-0.356,17.779-0.442c25.937-0.377,51.876-0.711,77.814-1.08c7.517-0.106,15.033-0.43,22.543-0.389
			c19.208,0.104,38.434,0.204,57.616,0.6c15.814,0.326,31.588,1.025,47.359,1.647c28.385,1.12,56.745,2.347,85.134,3.453
			c19.329,0.753,38.785,1.09,58.008,2.134c21.26,1.154,42.635,1.43,63.957,2.092c9.463,0.295,19.016,0.192,28.525,0.162
			c25.79-0.084,51.436-0.988,77.053-2.158c13.956-0.639,28.014-0.916,42.021-1.386c15.391-0.517,30.756-1.235,46.168-1.547
			c10.061-0.204,20.189,0.203,30.291,0.259c20.214,0.112,40.43,0.287,60.641,0.215c16.045-0.057,32.082-0.434,48.119-0.688
			c21.374-0.338,42.739-0.832,64.122-1.007c23.031-0.188,45.789,0.612,68.35,2.875c29.01,2.909,58.258,5.483,87.615,7.759
			c23.197,1.797,46.83,2.236,70.48,1.987c36.855-0.387,73.707-0.874,110.566-1.183c23.377-0.197,46.766-0.096,70.143-0.219
			c36.473-0.19,72.943-0.447,109.414-0.695c22.992-0.156,45.982-0.32,68.971-0.532c11.291-0.104,22.578-0.417,33.871-0.478
			c15.453-0.082,30.916-0.119,46.367,0.016c16.836,0.148,33.689,0.352,50.482,0.83c20.34,0.579,40.623,1.465,60.924,2.254
			c0.939,0.037,1.795,0.432,2.695,0.66C1644.458,34.104,1644.478,34.103,1644.478,34.103z"/>
		<path fill-rule="evenodd" clip-rule="evenodd" d="M1640.177,42.797c-0.996-0.15-2.158-0.205-2.967-0.467
			c-13.539-4.393-28.635-6.936-45.494-7.449c-10.734-0.326-21.461-0.92-32.205-0.99c-12.566-0.08-25.158,0.193-37.727,0.471
			c-12.023,0.266-24.033,0.688-36.033,1.127c-14.363,0.527-28.688,1.375-43.068,1.664c-13.822,0.279-27.699,0.045-41.551-0.014
			c-4.564-0.02-9.123-0.309-13.68-0.283c-19.594,0.113-39.037-0.781-58.479-1.631c-26.896-1.178-53.771-2.441-80.646-3.703
			c-25.822-1.211-51.709-1.629-77.672-1.549c-28.51,0.09-56.914,0.775-85.312,1.881c-24.729,0.963-49.541,1.531-74.332,2.164
			c-25.531,0.65-51.072,1.381-76.633,1.676c-22.082,0.254-44.203,0.057-66.297-0.16c-12.588-0.123-25.188-0.533-37.717-1.096
			c-15.072-0.676-30.089-1.6-45.1-2.508c-19.895-1.203-39.718-2.656-59.651-3.709c-26.639-1.408-53.318-2.715-80.046-3.74
			c-32.76-1.256-65.584-2.336-98.516-1.486c-16.768,0.434-33.5,1.123-50.264,1.59c-13.844,0.383-27.707,0.777-41.571,0.867
			c-26.848,0.174-53.702,0.178-80.554,0.168c-14.432-0.004-28.865-0.141-43.293-0.297c-8.027-0.086-16.042-0.424-24.068-0.492
			c-14.972-0.129-29.953-0.27-44.924-0.176c-24.477,0.152-48.965,0.32-73.416,0.809c-13.844,0.275-27.605,1.266-41.429,1.816
			c-14.547,0.578-29.113,1.105-43.693,1.48c-9.838,0.254-19.726,0.367-29.571,0.248c-10.563-0.129-21.098-0.68-31.66-0.9
			c-9.088-0.189-18.26-0.451-26.989,1.145c-0.162,0.031-0.518-0.145-1.578-0.459c2.836-0.387,5.112-0.898,7.469-0.982
			c6.538-0.229,13.123-0.461,19.666-0.365c12.763,0.188,25.511,0.865,38.262,0.844c15.322-0.027,30.646-0.518,45.958-0.914
			c8.374-0.215,16.722-0.635,25.074-0.988c12.533-0.531,25.046-1.172,37.598-1.598c8.726-0.297,17.5-0.354,26.257-0.439
			c12.777-0.123,25.559-0.188,38.341-0.258c14.432-0.08,28.868-0.252,43.295-0.172c12.952,0.072,25.891,0.492,38.843,0.652
			c19.897,0.244,39.8,0.471,59.704,0.564c14.242,0.068,28.487-0.096,42.733-0.154c4.198-0.016,8.404,0.033,12.596-0.051
			c16.416-0.328,32.836-0.629,49.237-1.072c15.669-0.424,31.298-1.229,46.977-1.473c16.035-0.252,32.12-0.17,48.167,0.033
			c14.773,0.188,29.552,0.584,44.276,1.146c25.104,0.961,50.204,1.979,75.23,3.252c19.576,0.996,39.008,2.52,58.557,3.623
			c25.337,1.43,50.678,2.906,76.106,3.932c24.916,1.006,49.936,1.273,74.99,0.691c23.348-0.543,46.736-0.744,70.09-1.242
			c33.205-0.711,66.389-1.543,99.488-2.992c15.24-0.666,30.598-0.928,45.918-1.129c18.432-0.24,36.896-0.395,55.332-0.27
			c29.244,0.197,58.342,1.385,87.381,2.916c18.857,0.996,37.818,1.605,56.688,2.566c25.635,1.307,51.434,1.07,77.135,1.744
			c7.26,0.189,14.676,0.08,21.869-0.357c4.891-0.299,9.727-0.119,14.568-0.352c5.072-0.242,10.207-0.25,15.295-0.469
			c12.713-0.545,25.408-1.156,38.117-1.725c1.988-0.09,3.99-0.117,5.988-0.135c18.619-0.166,37.244-0.527,55.852-0.406
			c11.086,0.072,22.193,0.766,33.211,1.439c13.514,0.826,30.854,4.254,40.191,7.619
			C1640.392,42.447,1640.282,42.623,1640.177,42.797z"/>
	</g>
</g>
</svg>
