<?xml version="1.0" encoding="utf-8"?>
<!-- Generator: Adobe Illustrator 16.0.0, SVG Export Plug-In . SVG Version: 6.00 Build 0)  -->
<!DOCTYPE svg PUBLIC "-//W3C//DTD SVG 1.1//EN" "http://www.w3.org/Graphics/SVG/1.1/DTD/svg11.dtd">
<svg version="1.1" id="Layer_1" xmlns="http://www.w3.org/2000/svg" xmlns:xlink="http://www.w3.org/1999/xlink" x="0px" y="0px"
	 viewBox="0 0 1653.435 52.498" enable-background="new 0 0 1653.435 52.498"
	 xml:space="preserve" shape-rendering="optimizeSpeed" stroke="#6c6861" vector-effect="non-scaling-stroke" stroke-width="1">
<g>
	<path fill-rule="evenodd" clip-rule="evenodd" d="M-79.406,23.457c3.021,0.098,6.034,0.254,9.062,0.283
		c20.016,0.193,40.043,0.309,60.054,0.551c22.752,0.275,45.5,0.613,68.235,1.006c22.26,0.385,44.614,0.574,66.721,1.396
		c23.756,0.887,47.507,0.982,71.324,1.152c20.016,0.141,40.02,0.484,60.021,0.799c17.979,0.281,35.95,0.611,53.914,0.977
		c27.063,0.551,54.112,1.176,81.175,1.717c13.15,0.262,26.33,0.371,39.488,0.607c20.995,0.377,41.98,0.801,62.969,1.209
		c19.988,0.387,39.966,0.84,59.964,1.154c35.705,0.564,71.416,1.1,107.135,1.547c34.961,0.438,69.934,0.768,104.907,1.109
		c17.734,0.174,35.479,0.281,53.218,0.396c24.067,0.156,48.135,0.391,72.205,0.414c34.971,0.035,69.94-0.088,104.915-0.143
		c31.423-0.051,62.85-0.078,94.276-0.158c26.369-0.066,52.737-0.273,79.103-0.279c43.879-0.012,87.774-0.121,131.626,0.219
		c26.141,0.203,52.266,0.318,78.263-0.324c39.149-0.969,78.318-2.061,116.823-4.689c7.175-0.49,14.428-0.926,21.406-1.625
		c6.472-0.646,12.619-1.613,18.917-2.434c2.456-0.32,4.93-0.627,7.653-0.734c-9.039,1.867-18.81,3.25-29.189,4.037
		c-20.426,1.549-40.902,3.07-61.888,3.697c-29.776,0.891-59.511,2.076-89.355,2.518c-28.082,0.416-56.283,0.033-84.428,0.004
		c-22.299-0.023-44.597-0.031-66.897-0.062c-11.146-0.018-22.295-0.129-33.44-0.094c-31.187,0.094-62.369,0.279-93.555,0.363
		c-39.561,0.105-79.141-0.045-118.682,0.266c-54.293,0.426-108.535,0.086-162.787-0.416c-46.119-0.428-92.236-0.877-138.349-1.359
		c-23.305-0.244-46.611-0.5-69.891-0.898c-31.383-0.537-62.739-1.238-94.113-1.83c-37.699-0.711-75.411-1.354-113.107-2.074
		c-28.333-0.543-56.638-1.238-84.979-1.732c-44.034-0.768-88.042-1.711-132.2-1.637c-13.121,0.023-26.254-0.604-39.379-0.941
		c-16.42-0.424-32.816-0.996-49.261-1.26C44.489,25.576,6.488,25.104-31.506,24.59c-13.934-0.188-27.873-0.326-41.808-0.502
		c-2.171-0.027-4.715,0.209-5.994-0.658L-79.406,23.457z"/>
	<path fill-rule="evenodd" clip-rule="evenodd" d="M1603.235,23.43c-6.306,0.145-12.618,0.418-18.917,0.41
		c-58.326-0.062-116.646-0.197-174.971-0.268c-78.894-0.096-157.796-0.297-236.678-0.191
		c-104.214,0.141-208.415,0.549-312.624,0.814c-84.229,0.217-168.467,0.383-252.703,0.594
		c-118.96,0.297-237.916,0.635-356.877,0.914c-52.99,0.125-105.997,0.15-158.994,0.219c-1.416,0.002-2.831-0.025-4.227-0.307
		c38.259,0,76.531,0.102,114.768-0.02c92.991-0.291,185.954-0.736,278.943-1.021c64.726-0.199,129.479-0.213,194.216-0.352
		c50.062-0.107,100.114-0.291,150.172-0.43c71.262-0.197,142.52-0.482,213.787-0.561c139.029-0.15,278.065-0.232,417.101-0.236
		c48.866-0.002,97.732,0.311,146.69,0.471C1603.004,23.457,1603.235,23.43,1603.235,23.43z"/>
	<path fill-rule="evenodd" clip-rule="evenodd" d="M-67.491,9.545c5.367-0.031,9.569-0.134,13.749-0.064
		c8.257,0.138,16.503,0.366,24.754,0.563c23.738,0.568,47.482,1.111,71.214,1.715c17.124,0.436,34.224,0.994,51.351,1.421
		c14.445,0.36,28.915,0.6,43.373,0.912c11.976,0.259,23.942,0.595,35.925,0.81c21.282,0.381,42.563,0.888,63.864,0.985
		c22.952,0.107,45.927-0.232,68.892-0.297c8.686-0.024,17.368,0.196,26.054,0.274c19.86,0.174,39.745,0.173,59.576,0.53
		c26.016,0.473,51.989,1.229,77.985,1.847c7.219,0.173,14.446,0.344,21.68,0.416c35.98,0.358,71.957,0.838,107.952,0.958
		c18.595,0.062,37.225-0.552,55.841-0.836c22.753-0.349,45.509-0.669,68.264-1.009c18.003-0.27,36.012-0.783,54.002-0.762
		c19.429,0.021,38.848,0.479,58.253,0.858c11.354,0.223,22.73,0.497,33.991,1.042c18.423,0.891,36.792,1.957,55.131,3.067
		c26.538,1.605,52.614,4.06,78.762,6.363c22.514,1.981,44.816,4.303,67.344,6.263c17.7,1.54,35.543,2.879,53.427,4.084
		c20.937,1.411,41.904,2.834,63.012,3.791c24.219,1.1,48.629,1.497,73.091,1.349c27.532-0.164,55.071-0.164,82.596-0.423
		c17.999-0.169,35.983-0.773,53.981-0.999c25.251-0.316,50.511-0.611,75.758-0.633c20.682-0.018,41.363,0.312,62.027,0.608
		c18.58,0.266,37.127,0.861,55.711,1.015c28.321,0.233,56.677,0.067,84.991,0.346c22.718,0.224,45.003-1.06,67.278-2.498
		c12.84-0.83,25.566-1.956,38.349-2.935c6.558-0.502,13.033-0.28,19.48,0.088c0.011,0.192,0.022,0.385,0.03,0.578
		c-1.874,0.011-3.76,0.081-5.616,0.023c-8.598-0.271-16.971,0.4-25.191,1.198c-25.238,2.449-50.9,3.852-76.715,4.428
		c-20.226,0.451-40.554,0.096-60.834,0.047c-14.067-0.032-28.146-0.055-42.196-0.257c-22.322-0.318-44.629-0.758-66.934-1.191
		c-30.602-0.594-61.225-0.745-91.879-0.32c-23.787,0.33-47.568,0.781-71.358,1.028c-31.87,0.329-63.75,0.417-95.619,0.788
		c-24.072,0.282-48.057-0.207-71.886-1.124c-21.756-0.837-43.324-2.386-64.893-3.799c-26.875-1.758-53.555-3.856-80.004-6.418
		c-28.808-2.791-57.727-5.446-86.793-7.82c-24.608-2.01-49.4-3.692-74.411-4.958c-25.035-1.267-50.19-1.747-75.348-2.365
		c-21.307-0.523-42.616-0.366-63.929-0.014c-26.893,0.444-53.773,1.033-80.665,1.488c-20.475,0.348-40.958,0.741-61.439,0.824
		c-23.583,0.098-47.176-0.02-70.75-0.236c-21.096-0.193-42.182-0.574-63.248-1.011c-17.135-0.354-34.23-0.946-51.354-1.369
		c-10.317-0.255-20.65-0.458-30.99-0.56c-26.677-0.262-53.357-0.567-80.045-0.639c-19.435-0.054-38.89,0.343-58.331,0.341
		c-15.301-0.002-30.604-0.23-45.886-0.494c-27.264-0.468-54.521-0.986-81.764-1.586c-16.107-0.354-32.171-0.938-48.269-1.354
		c-18.982-0.492-37.98-0.91-56.969-1.373c-16.502-0.4-32.998-0.849-49.506-1.223c-9.284-0.211-18.587-0.309-27.879-0.461
		C-62.627,10.533-64.942,10.701-67.491,9.545z"/>
	<path fill-rule="evenodd" clip-rule="evenodd" d="M1676.858,35.284c-4.515-0.206-9.014-0.479-13.54-0.606
		c-29.712-0.83-59.406-1.887-89.164-2.36c-25.635-0.407-51.345-0.252-77.017-0.134c-25.242,0.115-50.475,0.511-75.715,0.756
		c-36.839,0.357-73.676,0.777-110.523,1.001c-23.178,0.142-46.367-0.089-69.552-0.033c-14.276,0.034-28.548,0.3-42.823,0.447
		c-8.275,0.086-16.554,0.136-24.83,0.216c-27.301,0.264-54.604,0.566-81.906,0.789c-19.705,0.16-39.374-0.328-58.747-1.639
		c-21.775-1.473-43.372-3.35-64.993-5.146c-17.793-1.478-35.424-3.264-53.295-4.584c-10.724-0.793-21.735-1.181-32.662-1.352
		c-21.719-0.341-43.412,0.201-65.125,0.568c-32.658,0.553-65.285,1.515-98.049,1.124c-26.879-0.321-53.793-0.313-80.688-0.26
		c-9.064,0.019-18.115,0.653-27.183,0.957c-14.215,0.476-28.452,0.861-42.66,1.374c-14.207,0.512-28.376,1.185-42.586,1.684
		c-8.863,0.312-17.762,0.505-26.658,0.62c-27.127,0.355-54.251,0.147-81.314-0.578c-17.118-0.459-34.165-1.311-51.253-1.938
		c-20.589-0.756-41.2-1.424-61.784-2.199c-14.613-0.551-29.187-1.251-43.795-1.82c-14.612-0.57-29.245-1.07-43.871-1.584
		c-10.301-0.363-20.613-0.684-30.913-1.051c-24.564-0.877-49.179-1.054-73.82-0.771c-25.433,0.29-50.862,0.626-76.293,0.963
		c-3.719,0.05-7.422,0.242-11.139,0.326c-15.068,0.34-30.156,0.58-45.202,1.03c-6.751,0.202-13.418,0.815-20.157,1.231
		c-0.03-0.011,0.074,0.027,0.074,0.027c1.594-1.222,4.875-1.094,7.487-1.197c10.483-0.417,21.004-0.697,31.515-0.999
		c6.184-0.178,12.372-0.356,18.566-0.442c27.085-0.377,54.172-0.711,81.258-1.08c7.85-0.106,15.699-0.43,23.54-0.389
		c20.061,0.104,40.136,0.203,60.167,0.6c16.515,0.326,32.986,1.025,49.455,1.647c29.642,1.12,59.257,2.347,88.903,3.453
		c20.185,0.753,40.501,1.09,60.576,2.134c22.201,1.154,44.522,1.43,66.787,2.092c9.882,0.295,19.858,0.192,29.789,0.162
		c26.931-0.084,53.711-0.988,80.462-2.158c14.574-0.639,29.254-0.916,43.881-1.386c16.072-0.517,32.117-1.235,48.212-1.547
		c10.505-0.204,21.082,0.203,31.63,0.259c21.109,0.112,42.22,0.287,63.325,0.215c16.755-0.057,33.502-0.434,50.25-0.688
		c22.32-0.338,44.629-0.832,66.958-1.007c24.053-0.188,47.814,0.612,71.377,2.875c30.292,2.909,60.835,5.483,91.491,7.759
		c24.225,1.797,48.905,2.236,73.601,1.987c38.485-0.387,76.968-0.874,115.46-1.183c24.409-0.197,48.834-0.096,73.247-0.219
		c38.086-0.19,76.173-0.447,114.257-0.695c24.009-0.156,48.016-0.32,72.022-0.532c11.792-0.104,23.576-0.417,35.371-0.478
		c16.138-0.082,32.286-0.119,48.42,0.016c17.581,0.148,35.181,0.352,52.716,0.83c21.238,0.579,42.422,1.465,63.618,2.254
		c0.984,0.037,1.876,0.432,2.817,0.66C1676.839,35.286,1676.858,35.284,1676.858,35.284z"/>
</g>
</svg>
