<?xml version="1.0" encoding="utf-8"?>
<!-- Generator: Adobe Illustrator 16.0.0, SVG Export Plug-In . SVG Version: 6.00 Build 0)  -->
<!DOCTYPE svg PUBLIC "-//W3C//DTD SVG 1.1//EN" "http://www.w3.org/Graphics/SVG/1.1/DTD/svg11.dtd">
<svg version="1.1" id="Layer_1" xmlns="http://www.w3.org/2000/svg" xmlns:xlink="http://www.w3.org/1999/xlink" x="0px" y="0px"
	 viewBox="0 0 1653.435 52.498" enable-background="new 0 0 1653.435 52.498"
	 xml:space="preserve" shape-rendering="optimizeSpeed" stroke="#6c6861" vector-effect="non-scaling-stroke" stroke-width="1">
<path fill-rule="evenodd" clip-rule="evenodd" d="M2.958,7.895C2.366,7.551,1.747,7.192,1.024,6.773
	C1.674,6.585,2.063,6.381,2.5,6.358c8.057-0.417,15.638,0.683,23.294,1.501c19.551,2.091,38.626,4.891,57.349,8.116
	c15.742,2.712,32.146,3.844,48.696,4.788c22.824,1.303,45.749,1.566,68.745,1.591c23.127,0.024,46.255,0.458,69.38,0.748
	c11.48,0.145,22.962,0.312,34.429,0.576c14.873,0.343,29.728,0.827,44.598,1.183c13.076,0.312,26.167,0.51,39.245,0.794
	c14.696,0.319,29.391,0.643,44.078,1.029c19.692,0.519,39.372,1.156,59.069,1.641c25.253,0.621,50.52,1.121,75.774,1.713
	c15.398,0.361,30.777,0.871,46.18,1.18c16.123,0.322,32.262,0.473,48.393,0.719c28.498,0.434,57.008,0.756,85.487,1.361
	c32.427,0.688,64.826,1.645,97.239,2.465c20.234,0.51,40.465,1.051,60.711,1.453c19.526,0.389,39.073,0.588,58.609,0.924
	c12.9,0.221,25.789,0.625,38.691,0.779c12.012,0.141,24.039,0,36.057,0.088c36.591,0.266,73.178,0.586,109.766,0.875
	c14.892,0.117,29.793,0.094,44.673,0.334c21.871,0.355,43.748,0.764,65.592,1.375c27.82,0.777,55.602,0.594,83.293-0.641
	c18.011-0.803,35.879-2.219,53.871-3.121c17.983-0.902,35.922-1.945,54.077-2.26c16.023-0.277,31.889,0.225,47.802,0.65
	c4.46,0.119,8.859,0.648,13.319,0.785c19.608,0.607,38.361,3.238,57.598,4.719c8.11,0.625,16.258,1.229,24.445,1.574
	c4.32,0.184,8.761-0.209,13.006-0.338c-2.304,1.041-5.748,1.129-8.99,1.107c-4.823-0.031-9.715-0.139-14.444-0.533
	c-15.145-1.266-30.201-2.738-45.345-4.012c-7.391-0.623-14.864-1.096-22.349-1.438c-14.977-0.684-29.961-1.482-44.984-1.754
	c-11.971-0.219-24.086-0.047-36,0.52c-25.676,1.221-51.237,2.904-76.891,4.217c-24.248,1.24-48.567,2.146-73.024,1.709
	c-22.225-0.4-44.438-0.938-66.669-1.25c-31.746-0.449-63.501-0.795-95.255-1.094c-26.372-0.248-52.748-0.383-79.124-0.531
	c-10.405-0.059-20.812,0.037-31.213-0.035c-10.581-0.076-21.16-0.277-31.741-0.416c-17.214-0.223-34.44-0.342-51.645-0.682
	c-25.096-0.496-50.182-1.102-75.26-1.744c-21.311-0.547-42.602-1.273-63.913-1.809c-26.87-0.676-53.745-1.342-80.635-1.822
	c-24.554-0.438-49.137-0.551-73.694-0.939c-20.076-0.318-40.137-0.824-60.201-1.264c-21.045-0.461-42.094-0.904-63.131-1.426
	c-21.134-0.523-42.25-1.188-63.388-1.693c-24.363-0.583-48.742-1.039-73.108-1.595c-12.542-0.287-25.07-0.699-37.609-1.009
	c-18.987-0.468-37.973-0.979-56.974-1.316c-17.388-0.309-34.794-0.403-52.192-0.605c-24.743-0.288-49.503-0.431-74.225-0.937
	c-18.102-0.372-36.147-1.395-53.771-3.301c-9.887-1.07-19.474-2.759-29.015-4.381c-18.652-3.17-37.855-5.449-57.304-7.359
	C8.829,7.074,6.167,7.212,2.958,7.895z"/>
<path fill-rule="evenodd" clip-rule="evenodd" d="M1659.635,22.151c-1.315,0.205-2.604,0.447-3.942,0.611
	c-7.428,0.906-14.82,1.879-22.313,2.664c-7.276,0.766-14.646,0.383-21.962-0.053c-10.131-0.604-20.271-1.191-30.375-1.885
	c-9.2-0.631-18.321-1.529-27.548-2.074c-25.569-1.512-50.721-1.002-75.411,2.816c-17.774,2.748-35.771,5.253-53.899,7.505
	c-33.489,4.16-67.728,5.396-102.374,4.404c-21.666-0.623-43.375-1.098-64.949-2.129c-21.025-1.006-41.924-2.57-62.84-4.006
	c-37.229-2.554-74.375-5.365-111.667-7.73c-20.05-1.271-40.289-2.064-60.502-2.656c-20.938-0.611-41.944-0.807-62.926-1.021
	c-22.96-0.236-45.939-0.127-68.888-0.461c-24.567-0.357-49.104-1.093-73.661-1.591c-16.672-0.339-33.354-0.573-50.035-0.813
	c-24.392-0.352-48.783-0.822-73.182-0.956c-24.576-0.135-49.172-0.079-73.742,0.187c-22.596,0.244-45.185,0.789-67.755,1.372
	c-15.755,0.408-31.469,1.142-47.212,1.666c-22.912,0.764-45.867,1.5-68.834,1.084c-20.42-0.371-40.78-1.35-61.191-1.877
	c-18.804-0.486-37.65-1.104-56.457-0.986c-23.485,0.146-46.97,0.847-70.412,1.583c-11.241,0.354-22.348,1.475-33.574,2.01
	c-20.865,0.996-41.764,1.857-62.663,2.699c-15.358,0.617-30.743,1.121-46.114,1.668c-15.084,0.537-30.18,0.375-45.11-0.578
	c-15.599-0.994-31.051-2.445-46.58-3.664c-3.424-0.268-6.901-0.398-10.442-0.596c0.744-1.295,2.247-0.832,3.566-0.719
	c14.082,1.219,28.137,2.502,42.256,3.629c19.897,1.588,39.97,1.709,60.087,1.121c8.767-0.256,17.541-0.49,26.286-0.859
	c24.107-1.012,48.219-2.021,72.296-3.164c20.327-0.965,40.558-2.445,60.927-3.1c27.19-0.873,54.468-1.409,81.751-0.497
	c21.468,0.719,42.932,1.457,64.405,2.144c24.936,0.799,49.88,0.527,74.79-0.158c20.05-0.552,40.046-1.477,60.097-2.024
	c21.309-0.581,42.647-0.948,63.979-1.338c13.449-0.246,26.908-0.508,40.363-0.505c19.381,0.005,38.761,0.207,58.138,0.392
	c17.76,0.17,35.523,0.354,53.271,0.665c27.075,0.474,54.134,1.125,81.21,1.582c28.864,0.487,57.738,0.899,86.613,1.226
	c26.01,0.293,52.051,0.176,78.033,0.697c28.682,0.576,57.224,2.031,85.617,4.01c15.945,1.111,31.958,2.031,47.895,3.166
	c17.349,1.236,34.609,2.722,51.973,3.916c22.681,1.559,45.276,3.414,68.218,4.131c19.321,0.605,38.626,1.402,57.971,1.797
	c27.305,0.555,54.553,0.174,81.44-2.326c22.333-2.076,44.151-4.98,65.547-8.482c17.84-2.92,36.144-4.711,55.157-4.779
	c7.866-0.027,15.736,0.375,23.613,0.537c13.337,0.275,26.136,2.025,39.266,2.824c12.936,0.787,25.817,2.059,38.999,1.699
	c3.547-0.096,7.091-0.404,10.564-0.756c7.315-0.74,14.581-1.574,21.868-2.369C1659.391,21.918,1659.51,22.036,1659.635,22.151z"/>
<path fill-rule="evenodd" clip-rule="evenodd" d="M-16.991,34.529c1.736,0,3.5-0.09,5.206,0.016
	c8.67,0.529,17.177,0.197,25.546-0.887c15.744-2.039,31.923-1.93,48.061-1.898c22.46,0.043,44.839-0.344,67.062-1.928
	c13.86-0.988,27.365-2.59,40.549-4.697c23.372-3.735,47.433-5.366,72.246-5.654c24.639-0.286,49.14,0.302,73.655,1.09
	c17.888,0.575,35.751,1.304,53.641,1.863c14.49,0.454,29.003,0.768,43.509,1.129c19.166,0.477,38.337,0.922,57.502,1.412
	c14.866,0.38,29.725,0.804,44.586,1.216c20.594,0.572,41.184,1.163,61.779,1.721c20.048,0.545,40.09,1.172,60.157,1.553
	c21.689,0.412,43.403,0.832,65.104,0.801c36.053-0.051,72.103-0.5,108.157-0.697c18.832-0.102,37.669-0.016,56.504-0.029
	c11.657-0.01,23.316-0.121,34.97-0.066c40.718,0.191,81.451-0.486,122.151,0.521c25.261,0.623,50.524,1.219,75.791,1.791
	c38.343,0.871,76.689,1.734,115.042,2.539c6.615,0.139,13.268-0.102,19.894-0.033c13.626,0.141,27.251,0.363,40.873,0.566
	c13.263,0.197,26.526,0.369,39.78,0.631c14.877,0.293,29.748,0.6,44.605,1.029c25.771,0.746,51.517,1.66,77.292,2.373
	c21.3,0.588,42.627,0.969,63.94,1.484c6.788,0.164,13.556,0.504,20.345,0.689c3.752,0.104,7.53,0.064,11.297,0.078
	c13.853,0.049,27.448,0.963,40.937,2.309c6.641,0.662,13.376,1.135,20.038,1.754c4.032,0.373,8.032,0.824,11.999,1.316
	c2.085,0.26,2.039,0.334,3.459,1.459c-0.297,0.064-0.716,0.221-0.871,0.18c-5.324-1.441-11.264-1.926-17.301-2.395
	c-10.93-0.85-21.726-2.09-32.697-2.773c-9.709-0.605-19.41-1.33-29.407-1.025c-7.081,0.215-14.278-0.406-21.436-0.59
	c-9.486-0.242-18.982-0.41-28.475-0.633c-11.815-0.277-23.636-0.516-35.435-0.885c-12.7-0.396-25.373-0.943-38.062-1.391
	c-9.298-0.328-18.6-0.635-27.908-0.885c-10.739-0.289-21.487-0.496-32.23-0.754c-17.009-0.406-34.016-0.861-51.032-1.221
	c-6.807-0.143-13.631-0.068-20.448-0.123c-22.6-0.184-45.202-0.287-67.791-0.6c-15.948-0.223-31.87-0.75-47.807-1.115
	c-11.645-0.266-23.297-0.465-34.942-0.742c-17.196-0.408-34.386-0.902-51.586-1.281c-21.146-0.467-42.294-0.92-63.455-1.252
	c-16.134-0.256-32.286-0.402-48.434-0.438c-19.376-0.041-38.754,0.133-58.132,0.131c-20.816-0.002-41.633-0.178-62.45-0.135
	c-17.225,0.035-34.446,0.289-51.67,0.43c-15.073,0.125-30.146,0.232-45.219,0.344c-12.378,0.09-24.761,0.316-37.133,0.23
	c-18.299-0.127-36.591-0.461-54.884-0.738c-11.645-0.176-23.295-0.334-34.927-0.633c-20.95-0.537-41.889-1.172-62.832-1.775
	c-11.458-0.329-22.909-0.719-34.372-1.004c-30.995-0.771-61.999-1.47-92.993-2.257c-22.033-0.56-44.061-1.157-66.073-1.849
	c-20.042-0.629-40.042-1.551-60.096-2.08c-22.031-0.581-44.079-0.763-66.178-0.353c-22.136,0.411-43.307,2.568-64.062,5.806
	c-17,2.651-34.434,4.622-52.344,5.28c-18.576,0.68-37.258,0.83-55.902,1.082c-12.012,0.164-24.066-0.078-35.953,0.943
	c-6.324,0.545-12.572,1.305-18.938,1.693C-2.196,35.625-9.704,35.854-16.991,34.529z"/>
<path fill-rule="evenodd" clip-rule="evenodd" d="M1606.153,44.07c-0.978-0.15-2.118-0.205-2.912-0.467
	c-13.299-4.393-28.126-6.936-44.683-7.449c-10.544-0.326-21.079-0.92-31.631-0.99c-12.343-0.08-24.71,0.193-37.054,0.471
	c-11.81,0.266-23.605,0.688-35.391,1.127c-14.105,0.527-28.174,1.375-42.299,1.664c-13.575,0.279-27.205,0.045-40.81-0.014
	c-4.481-0.02-8.961-0.309-13.436-0.283c-19.244,0.113-38.34-0.781-57.436-1.631c-26.417-1.178-52.811-2.441-79.207-3.703
	c-25.36-1.211-50.785-1.629-76.286-1.549c-28,0.09-55.897,0.775-83.788,1.881c-24.287,0.963-48.656,1.531-73.006,2.164
	c-25.077,0.65-50.16,1.381-75.266,1.676c-21.688,0.254-43.415,0.057-65.114-0.16c-12.362-0.123-24.737-0.533-37.043-1.096
	c-14.803-0.676-29.552-1.6-44.295-2.508c-19.539-1.203-39.009-2.656-58.586-3.709c-26.164-1.408-52.367-2.714-78.618-3.74
	c-32.175-1.256-64.414-2.336-96.757-1.486c-16.468,0.434-32.901,1.123-49.367,1.59c-13.596,0.383-27.212,0.777-40.829,0.867
	c-26.369,0.174-52.744,0.178-79.117,0.168c-14.174-0.004-28.35-0.141-42.521-0.297c-7.885-0.086-15.755-0.424-23.639-0.492
	c-14.705-0.129-29.418-0.27-44.122-0.176c-24.04,0.152-48.091,0.32-72.105,0.809c-13.597,0.275-27.113,1.265-40.689,1.816
	c-14.288,0.578-28.594,1.105-42.914,1.48c-9.662,0.254-19.374,0.367-29.043,0.248c-10.375-0.129-20.722-0.68-31.095-0.9
	c-8.926-0.189-17.934-0.451-26.508,1.145c-0.159,0.031-0.509-0.145-1.55-0.459c2.786-0.387,5.022-0.898,7.336-0.982
	c6.421-0.229,12.888-0.461,19.314-0.365c12.535,0.188,25.056,0.865,37.58,0.844c15.048-0.027,30.099-0.518,45.137-0.914
	c8.225-0.215,16.423-0.635,24.627-0.988c12.309-0.531,24.599-1.172,36.927-1.598c8.57-0.297,17.187-0.354,25.789-0.439
	c12.549-0.123,25.104-0.188,37.656-0.258c14.175-0.08,28.354-0.252,42.523-0.172c12.721,0.072,25.429,0.492,38.15,0.652
	c19.542,0.244,39.09,0.471,58.639,0.564c13.987,0.068,27.979-0.096,41.97-0.154c4.124-0.016,8.254,0.033,12.371-0.051
	c16.123-0.328,32.25-0.629,48.358-1.072c15.389-0.424,30.74-1.229,46.139-1.473c15.749-0.252,31.546-0.17,47.307,0.033
	c14.509,0.188,29.024,0.584,43.486,1.146c24.656,0.961,49.308,1.979,73.888,3.251c19.226,0.996,38.312,2.52,57.511,3.623
	c24.885,1.43,49.774,2.906,74.749,3.932c24.472,1.006,49.044,1.273,73.651,0.691c22.932-0.543,45.901-0.744,68.838-1.242
	c32.613-0.711,65.206-1.543,97.715-2.992c14.968-0.666,30.051-0.928,45.098-1.129c18.104-0.24,36.237-0.395,54.345-0.27
	c28.723,0.197,57.301,1.385,85.82,2.916c18.522,0.996,37.144,1.605,55.677,2.566c25.178,1.307,50.516,1.07,75.758,1.744
	c7.13,0.189,14.413,0.08,21.479-0.357c4.802-0.299,9.552-0.119,14.308-0.352c4.982-0.242,10.025-0.25,15.021-0.469
	c12.486-0.545,24.954-1.156,37.438-1.725c1.952-0.09,3.919-0.117,5.881-0.135c18.286-0.166,36.578-0.527,54.854-0.406
	c10.889,0.072,21.798,0.766,32.617,1.439c13.273,0.826,30.304,4.254,39.475,7.619C1606.364,43.721,1606.258,43.896,1606.153,44.07z"
	/>
</svg>
