<?xml version="1.0" encoding="utf-8"?>
<!-- Generator: Adobe Illustrator 16.0.0, SVG Export Plug-In . SVG Version: 6.00 Build 0)  -->
<!DOCTYPE svg PUBLIC "-//W3C//DTD SVG 1.1//EN" "http://www.w3.org/Graphics/SVG/1.1/DTD/svg11.dtd">
<svg version="1.1" id="Layer_1" xmlns="http://www.w3.org/2000/svg" xmlns:xlink="http://www.w3.org/1999/xlink" x="0px" y="0px"
	 viewBox="0 0 1653.435 52.498" enable-background="new 0 0 1653.435 52.498"
	 xml:space="preserve" shape-rendering="optimizeSpeed" stroke="#6c6861" vector-effect="non-scaling-stroke" stroke-width="1">
<g>
	<path fill-rule="evenodd" clip-rule="evenodd" d="M1720.164,33.601c-2.616,0.054-5.235,0.088-7.848,0.164
		c-7.122,0.209-14.292,0.296-21.351,0.681c-21.911,1.191-43.839,2.463-65.989,2.311c-17.566-0.121-35.125-0.39-52.702-1.016
		c-20.46-0.729-40.493-2.292-60.689-3.517c-20.82-1.262-41.403-3.104-62.171-4.515c-29.132-1.977-58.425-2.858-88.053-1.97
		c-16.856,0.505-33.17,1.92-49.4,3.567c-20,2.031-39.782,4.401-59.871,6.281c-20.896,1.957-42.147,3.238-63.618,3.894
		c-11.629,0.355-23.226,0.957-34.87,1.162c-19.427,0.34-38.896,0.719-58.327,0.592c-25.781-0.168-51.543-0.815-77.316-1.237
		c-11.657-0.19-23.331-0.267-34.979-0.517c-12.872-0.277-25.722-0.719-38.588-1.049c-24.712-0.634-49.427-1.255-74.145-1.851
		c-15.121-0.363-30.257-0.646-45.378-1.01c-25.128-0.604-50.25-1.241-75.376-1.867c-13.078-0.326-26.166-0.595-39.227-0.996
		c-28.967-0.89-57.918-1.864-86.881-2.771c-18.367-0.574-36.759-1.031-55.118-1.645c-25.899-0.863-51.769-1.858-77.667-2.729
		c-26.917-0.904-53.836-1.812-80.785-2.555c-19.604-0.541-39.245-0.918-58.887-1.181c-15.135-0.202-30.298-0.079-45.447-0.159
		c-23.339-0.123-46.678-0.413-70.018-0.416c-25.181-0.004-50.36,0.365-75.54,0.344c-28.451-0.025-56.902-0.287-85.352-0.479
		c-27.894-0.188-55.403-2.021-83.112-3.007c-11.413-0.405-22.806-0.962-34.241-1.179c-13.28-0.251-26.669-0.364-38.801,2.884
		c-0.7-1.312,1.363-1.603,3.024-1.911c6.756-1.256,13.975-1.863,21.392-1.851c9.81,0.016,19.655,0.055,29.417,0.392
		c20.181,0.695,40.37,1.436,60.458,2.452c23.209,1.175,46.506,1.47,69.835,1.592c24.749,0.13,49.504,0.163,74.256,0.139
		c13.912-0.015,27.826-0.324,41.739-0.333c14.935-0.01,29.871,0.219,44.808,0.271c23.532,0.082,47.069,0.042,70.6,0.175
		c14.529,0.082,29.062,0.305,43.572,0.612c24.302,0.517,48.624,0.992,72.875,1.777c27.924,0.903,55.762,2.205,83.674,3.18
		c19.768,0.689,39.605,1.069,59.391,1.688c14.273,0.446,28.508,1.08,42.772,1.586c7.742,0.274,15.506,0.449,23.26,0.678
		c17.956,0.531,35.907,1.081,53.863,1.598c21.019,0.605,42.036,1.232,63.066,1.762c25.525,0.643,51.065,1.193,76.598,1.781
		c21.861,0.503,43.721,0.983,65.576,1.509c25.325,0.608,50.63,1.372,75.972,1.855c28.621,0.545,57.302,0.654,85.901,1.331
		c22.153,0.525,44.205-0.095,66.296-0.202c11.845-0.057,23.683-0.614,35.493-1.074c13.228-0.517,26.52-0.961,39.608-1.833
		c15.104-1.007,30.137-2.263,44.986-3.739c27.151-2.699,53.736-6.332,81.587-7.849c18.262-0.994,36.707-1.041,55.157-0.657
		c28.099,0.585,55.535,2.828,83.105,4.792c23.54,1.676,47.093,3.367,70.786,4.649c19.433,1.052,39.035,1.653,58.735,1.624
		c18.637-0.027,37.149-0.371,55.671-1.344c14.953-0.784,29.839-2.174,45.13-1.666c1.063,0.035,2.114,0.115,3.176,0.175
		C1720.184,33.184,1720.175,33.393,1720.164,33.601z"/>
	<path fill-rule="evenodd" clip-rule="evenodd" d="M1733.381,37.839c-5.909,2.825-13.597,2.886-21.583,2.053
		c-18.257-1.906-36.71-1.939-55.456-1.518c-23.678,0.532-47.448,0.871-71.146,0.681c-16.517-0.132-32.964-1.326-49.458-1.986
		c-17.71-0.711-35.412-1.481-53.163-1.995c-32.963-0.953-65.841-0.183-98.728,0.899c-22.423,0.737-44.918,1.189-67.405,1.602
		c-26.581,0.487-53.18,0.821-79.778,1.165c-14.318,0.186-28.65,0.192-42.969,0.389c-19.438,0.266-38.861,0.674-58.299,0.951
		c-16.777,0.239-33.561,0.426-50.346,0.553c-18.207,0.137-36.424,0.32-54.629,0.226c-22.103-0.114-44.184-0.479-66.161-1.583
		c-19.481-0.979-39.07-1.632-58.527-2.666c-25.818-1.372-51.803-1.689-77.764-2.174c-7.763-0.146-15.558-0.053-23.338-0.046
		c-31.703,0.027-62.801-1.75-93.633-4.541c-19.924-1.803-39.922-3.546-60.078-4.877c-36.352-2.398-72.962-2.22-109.616-1.043
		c-25.31,0.811-50.708,1.662-76.063,0.702c-17.896-0.678-35.711-1.817-53.424-3.056c-35.31-2.467-70.729-4.551-106.681-4.455
		c-15.526,0.041-31.096,0.525-46.551,1.158c-32.983,1.352-65.921,2.891-99.084,3.395c-29.474,0.448-58.957,0.533-88.412-0.258
		c-29.816-0.801-59.624-1.637-89.438-2.436c-12.652-0.34-25.308-0.67-37.975-0.906c-3.636-0.068-7.312,0.221-10.975,0.312
		c-0.908,0.022-1.835-0.086-2.972-0.549c1.12-0.156,2.248-0.453,3.359-0.447c8.788,0.057,17.59,0.067,26.353,0.291
		c13.268,0.34,26.502,0.885,39.764,1.263c21.437,0.61,42.872,1.245,64.331,1.7c17.375,0.367,34.783,0.656,52.177,0.677
		c35.861,0.04,71.621-0.856,107.288-2.29c18.528-0.744,37.018-1.63,55.563-2.291c8.547-0.305,17.184-0.293,25.781-0.305
		c20.5-0.027,40.953,0.461,61.234,1.584c18.016,0.998,35.933,2.281,53.842,3.554c30.942,2.198,61.992,3.289,93.494,2.399
		c26.125-0.736,52.32-1.102,78.485-1.619c18.312-0.363,36.364,0.703,54.433,1.598c24.998,1.238,49.325,3.77,73.886,5.869
		c18.379,1.572,36.936,2.949,55.799,3.275c21.675,0.375,43.382,0.452,65.047,0.865c19.215,0.365,38.431,0.854,57.572,1.58
		c23.015,0.871,45.967,2.001,68.917,3.111c25.854,1.251,51.843,1.513,77.822,1.503c24.152-0.008,48.306-0.36,72.45-0.646
		c20.456-0.244,40.9-0.621,61.354-0.918c31.698-0.459,63.399-0.921,95.103-1.341c15.758-0.208,31.531-0.242,47.281-0.506
		c16.347-0.274,32.678-0.701,49.004-1.112c17.562-0.442,35.098-1.044,52.67-1.387c14.095-0.274,28.239-0.465,42.338-0.325
		c14.292,0.143,28.587,0.61,42.824,1.158c23.414,0.901,46.753,2.119,70.181,2.93c11.778,0.407,23.701,0.353,35.543,0.259
		c15.551-0.123,31.125-0.33,46.624-0.794c16.708-0.5,33.118-0.118,49.361,1.455c1.987,0.192,4.045,0.265,6.034,0.45
		c5.025,0.469,9.736,0.219,14.178-0.83C1730.957,38.278,1732.191,38.073,1733.381,37.839z"/>
	<path fill-rule="evenodd" clip-rule="evenodd" d="M1563.5,21.152c-6.636-0.223-13.302-0.373-19.917-0.682
		c-16.144-0.756-32.267-0.592-48.43-0.1c-34.686,1.06-68.125,4.453-101.485,8.063c-27.277,2.952-55.217,4.591-83.213,6.093
		c-21.323,1.143-42.758,1.719-64.27,1.748c-19.029,0.027-38.059-0.012-57.087-0.133c-35.004-0.223-70.002-0.612-105.005-0.775
		c-39.311-0.185-78.631-0.128-117.942-0.311c-20.872-0.096-41.737-0.549-62.61-0.713c-37.461-0.295-74.925-0.598-112.39-0.694
		c-22.713-0.058-45.437,0.222-68.15,0.431c-23.734,0.217-47.458,0.64-71.195,0.773c-29.063,0.166-58.136,0.148-87.204,0.163
		c-15.97,0.009-31.945-0.001-47.909-0.149c-11.25-0.104-22.483-0.48-33.728-0.691c-19.838-0.371-39.705-0.572-59.515-1.096
		c-20.209-0.536-40.389-1.296-60.539-2.111c-13.023-0.526-26.013-1.227-38.942-2.031c-20.349-1.266-39.575-3.737-57.732-7.705
		c-10.997-2.402-22.969-4.219-34.922-5.823c-8.023-1.077-16.721-1.514-25.218-1.899c-20.854-0.947-41.696-0.18-62.493,0.482
		c-17.341,0.551-34.588,1.385-51.66,2.794C70.311,18.572,48.386,19.678,26.4,20.57c-12.052,0.49-23.747,1.564-35.412,2.828
		c-7.038,0.762-14.44,1.031-21.709,1.443c-6.675,0.377-13.41,0.589-20.083,0.975c-13.178,0.764-26.066,0.33-38.727-1.25
		c-0.46-0.058-0.846-0.208-0.877-0.217c8.563,0.365,17.438,0.785,26.339,1.096c3.029,0.105,6.256,0.139,9.161-0.151
		c9.183-0.916,18.574-0.993,27.899-1.394c7.269-0.311,14.503-1.004,21.544-1.809c13.851-1.584,28.085-2.141,42.308-2.806
		c20.732-0.97,41.28-2.366,61.823-3.831c15.666-1.116,31.584-1.746,47.451-2.351c12.007-0.457,24.104-0.646,36.172-0.75
		c24.196-0.21,47.783,0.946,69.787,5.261c9.872,1.937,19.718,3.898,29.74,5.709c5.722,1.033,11.648,1.963,17.703,2.634
		c23.926,2.649,48.491,3.927,73.189,4.733c25.491,0.833,51.015,1.586,76.561,2.078c32.916,0.635,65.863,1.027,98.805,1.42
		c18.211,0.218,36.447,0.422,54.653,0.28c34.795-0.27,69.579-0.8,104.369-1.198c8.184-0.093,16.375-0.1,24.562-0.129
		c24.362-0.088,48.726-0.238,73.086-0.232c25.382,0.007,50.766,0.071,76.144,0.289c23.529,0.202,47.044,0.795,70.575,0.934
		c29.679,0.175,59.37-0.044,89.05,0.107c33.573,0.17,67.136,0.654,100.71,0.832c40.121,0.213,80.255,0.414,120.378,0.293
		c26.23-0.078,52.226-1.541,78.046-3.342c11.66-0.814,23.392-1.502,34.929-2.523c13.562-1.199,27.021-2.604,40.4-4.089
		c19.138-2.124,38.641-3.531,58.243-4.763c16.612-1.043,33.369-1.596,50.167-1.313c13.429,0.226,26.812,0.878,40.215,1.341
		C1563.57,20.834,1563.538,20.992,1563.5,21.152z"/>
</g>
</svg>
