<?xml version="1.0" encoding="utf-8"?>
<!-- Generator: Adobe Illustrator 16.0.0, SVG Export Plug-In . SVG Version: 6.00 Build 0)  -->
<!DOCTYPE svg PUBLIC "-//W3C//DTD SVG 1.1//EN" "http://www.w3.org/Graphics/SVG/1.1/DTD/svg11.dtd">
<svg version="1.1" id="Layer_1" xmlns="http://www.w3.org/2000/svg" xmlns:xlink="http://www.w3.org/1999/xlink" x="0px" y="0px"
	 viewBox="50 0 1403.435 52.498" enable-background="new 0 0 1653.435 52.498"
	 xml:space="preserve" shape-rendering="optimizeSpeed" stroke="#6c6861" vector-effect="non-scaling-stroke" stroke-width="1">
<path fill-rule="evenodd" clip-rule="evenodd" d="M1400.021,35.354c-3.667-0.206-7.322-0.48-11.001-0.606
	c-24.14-0.831-48.265-1.888-72.444-2.36c-20.826-0.408-41.717-0.252-62.575-0.135c-20.509,0.115-41.012,0.512-61.515,0.756
	c-29.934,0.357-59.862,0.777-89.801,1.002c-18.832,0.141-37.673-0.089-56.511-0.033c-11.599,0.034-23.194,0.299-34.792,0.447
	c-6.725,0.086-13.45,0.136-20.176,0.215c-22.182,0.264-44.363,0.566-66.547,0.789c-16.009,0.16-31.99-0.328-47.729-1.639
	c-17.693-1.473-35.241-3.35-52.806-5.145c-14.458-1.479-28.783-3.264-43.303-4.584c-8.713-0.793-17.66-1.182-26.537-1.352
	c-17.646-0.342-35.271,0.201-52.913,0.568c-26.534,0.553-53.043,1.514-79.664,1.123c-21.838-0.32-43.706-0.312-65.558-0.26
	c-7.365,0.02-14.719,0.654-22.086,0.957c-11.549,0.477-23.117,0.862-34.661,1.375c-11.542,0.512-23.055,1.185-34.601,1.684
	c-7.201,0.311-14.431,0.504-21.658,0.62c-22.041,0.354-44.079,0.147-66.068-0.579c-13.907-0.459-27.757-1.311-41.642-1.938
	c-16.728-0.756-33.473-1.424-50.198-2.199c-11.873-0.551-23.713-1.25-35.583-1.82c-11.872-0.57-23.761-1.069-35.644-1.584
	c-8.37-0.363-16.748-0.684-25.117-1.051c-19.958-0.876-39.957-1.053-59.977-0.771c-20.664,0.291-41.324,0.627-61.987,0.963
	c-3.021,0.051-6.031,0.242-9.049,0.326c-12.244,0.34-24.503,0.58-36.727,1.031c-5.484,0.201-10.902,0.814-16.377,1.23
	c-0.024-0.01,0.06,0.028,0.06,0.028c1.295-1.222,3.961-1.095,6.083-1.198c8.518-0.416,17.066-0.696,25.605-0.998
	c5.024-0.178,10.051-0.357,15.084-0.443c22.006-0.377,44.014-0.711,66.021-1.079c6.378-0.106,12.755-0.431,19.127-0.39
	c16.298,0.104,32.609,0.203,48.884,0.6c13.417,0.326,26.801,1.025,40.181,1.648c24.083,1.12,48.145,2.346,72.232,3.453
	c16.399,0.752,32.906,1.09,49.217,2.133c18.038,1.155,36.173,1.43,54.263,2.093c8.029,0.294,16.134,0.192,24.203,0.161
	c21.881-0.084,43.64-0.987,65.375-2.158c11.841-0.638,23.769-0.915,35.653-1.385c13.059-0.518,26.094-1.235,39.171-1.547
	c8.536-0.205,17.129,0.203,25.7,0.259c17.151,0.112,34.303,0.286,51.451,0.214c13.613-0.057,27.22-0.434,40.827-0.687
	c18.135-0.339,36.261-0.833,54.403-1.007c19.542-0.188,38.848,0.611,57.991,2.875c24.613,2.908,49.429,5.482,74.337,7.758
	c19.683,1.797,39.733,2.236,59.8,1.988c31.27-0.387,62.535-0.875,93.809-1.184c19.834-0.196,39.676-0.096,59.513-0.219
	c30.943-0.189,61.889-0.447,92.831-0.695c19.508-0.156,39.014-0.319,58.519-0.531c9.58-0.105,19.155-0.418,28.737-0.479
	c13.111-0.082,26.231-0.119,39.34,0.016c14.284,0.148,28.585,0.352,42.832,0.83c17.257,0.58,34.467,1.465,51.689,2.255
	c0.799,0.036,1.523,0.431,2.287,0.659C1400.005,35.355,1400.021,35.354,1400.021,35.354z"/>
<path fill-rule="evenodd" clip-rule="evenodd" d="M11.106,23.153c2.78,0.329,5.531,0.739,8.345,0.973
	c7.483,0.619,14.998,1.146,22.49,1.74c8.326,0.659,16.486-0.073,24.591-0.779c13.724-1.196,27.539-1.555,41.442-1.51
	c4.292,0.014,8.583-0.095,12.875-0.153c14.854-0.201,29.708-0.398,44.561-0.609c20.471-0.29,40.94-0.787,61.412-0.832
	c21.459-0.048,42.924,0.332,64.384,0.528c30.238,0.278,60.457,0.092,90.641-0.874c14.505-0.464,29.007-0.974,43.487-1.59
	c19.083-0.812,38.127-1.834,57.218-2.603c14.968-0.603,29.983-0.924,44.97-1.432c18.836-0.639,37.678-0.447,56.447,0.299
	c22.211,0.884,44.342,2.226,66.54,3.205c17.598,0.777,35.236,1.362,52.868,1.937c29.379,0.956,58.799,0.623,88.196,0.362
	c35.345-0.314,70.668-0.138,105.956,0.753c19.125,0.483,38.209,1.384,57.281,2.24c15.937,0.716,31.843,1.608,47.749,2.481
	c14.267,0.783,28.494,1.759,42.78,2.444c14.785,0.709,29.61,1.252,44.44,1.724c19.112,0.607,38.251,1.036,57.37,1.608
	c18.287,0.547,36.566,1.197,54.852,1.765c8.074,0.25,16.163,0.367,24.237,0.616c10.711,0.331,21.403,0.846,32.121,1.078
	c16.488,0.356,32.988,0.618,49.492,0.771c11.223,0.104,22.467,0.045,33.689-0.106s22.447-0.427,33.646-0.796
	c17.79-0.588,35.563-1.307,53.347-1.954c12.496-0.454,24.985-1.073,37.501-1.266c11.699-0.179,23.432,0.139,35.147,0.176
	c5.274,0.017,10.552-0.122,15.831-0.182c2.31-0.025,4.69-0.212,6.916-0.009c7.443,0.681,14.296-0.099,21.246-1.366
	c5.684-1.036,11.706-1.65,17.621-2.369c1.872-0.227,3.878-0.187,5.238-0.244c-9.585,1.53-19.623,3.151-29.695,4.722
	c-1.683,0.262-3.513,0.424-5.277,0.424c-10.225,0.003-20.452-0.05-30.677-0.097c-8.581-0.039-17.168-0.234-25.735-0.111
	c-12.868,0.186-25.734,0.518-38.583,0.916c-23.722,0.735-47.415,1.76-71.155,2.298c-23.249,0.527-46.543,0.817-69.815,0.799
	c-16.825-0.013-33.656-0.655-50.475-1.103c-13.354-0.355-26.698-0.818-40.041-1.271c-14.828-0.505-29.648-1.076-44.481-1.572
	c-8.733-0.292-17.481-0.489-26.222-0.737c-15.824-0.45-31.668-0.795-47.472-1.387c-20.899-0.783-41.793-1.645-62.642-2.689
	c-20.855-1.045-41.611-2.567-62.484-3.5c-24.172-1.08-48.418-1.807-72.644-2.574c-29.689-0.94-59.435-0.896-89.166-0.87
	c-23.456,0.019-46.923,0.576-70.361,0.339c-32.034-0.326-63.994-1.345-95.829-3.366c-30.638-1.945-61.465-3.09-92.409-2.894
	c-11.713,0.074-23.421,0.551-35.122,0.914c-12.851,0.399-25.706,0.801-38.532,1.344c-16.619,0.704-33.196,1.642-49.821,2.306
	c-17.942,0.718-35.902,1.476-53.883,1.781c-23.928,0.408-47.887,0.536-71.832,0.524c-22.295-0.01-44.59-0.48-66.886-0.518
	c-15.022-0.025-30.048,0.361-45.072,0.542c-13.212,0.158-26.427,0.255-39.636,0.438c-8.749,0.121-17.489,0.364-26.236,0.519
	c-11.387,0.201-22.793,0.242-34.159,0.599c-6.896,0.217-13.756,0.822-20.584,1.392c-8.92,0.744-17.778,0.547-26.637-0.139
	c-6.193-0.479-12.383-0.98-18.547-1.541c-1.808-0.165-3.524-0.567-5.283-0.861C10.796,23.588,10.95,23.37,11.106,23.153z"/>
<path fill-rule="evenodd" clip-rule="evenodd" d="M7.436,18.301c9.233,0.153,18.462,0.375,27.696,0.448
	c19.325,0.154,38.651,0.272,57.978,0.33c34.353,0.104,68.709,0.023,103.056,0.265c26.085,0.184,52.16,0.743,78.238,1.141
	c12.712,0.194,25.427,0.349,38.132,0.615c17.986,0.379,35.96,0.882,53.945,1.256c7.755,0.16,15.53,0.079,23.289,0.196
	c21.792,0.33,43.586,0.64,65.368,1.082c25.901,0.525,51.803,1.084,77.683,1.812c20.771,0.585,41.508,1.46,62.265,2.176
	c12.188,0.42,24.395,0.727,36.579,1.18c11.193,0.416,22.363,0.979,33.549,1.442c15.302,0.636,30.618,1.195,45.912,1.868
	c14.792,0.651,29.563,1.423,44.352,2.109c12.815,0.596,25.635,1.187,38.464,1.711c23.688,0.97,47.378,1.93,71.079,2.812
	c12.017,0.448,24.053,0.807,36.094,1.055c28.541,0.587,57.083,1.196,85.635,1.583c22.441,0.304,44.901,0.37,67.352,0.389
	c19.811,0.017,39.639-0.016,59.438-0.322c23.106-0.357,46.206-0.938,69.285-1.608c17.297-0.502,34.575-1.219,51.832-1.983
	c19.725-0.875,39.452-1.777,59.116-2.913c17.701-1.022,35.309-2.404,52.975-3.579c23.371-1.556,46.777-3,70.129-4.628
	c9.124-0.637,18.164-1.585,27.194-2.5c9.513-0.963,18.968-2.057,28.447-3.093c0.921-0.101,1.847-0.189,2.77-0.284
	c0.133,0.153,0.267,0.306,0.399,0.458c-1.017,0.221-1.993,0.538-3.062,0.646c-12.585,1.284-25.123,2.714-37.798,3.755
	c-17.404,1.431-34.918,2.553-52.381,3.825c-7.673,0.559-15.314,1.223-22.999,1.736c-16.509,1.104-33.039,2.136-49.556,3.206
	c-10.309,0.668-20.59,1.452-30.927,2.006c-12.964,0.693-25.963,1.232-38.959,1.783c-13.819,0.587-27.647,1.119-41.474,1.657
	c-10.367,0.404-20.729,0.957-31.113,1.139c-32.689,0.571-65.381,1.187-98.081,1.421c-23.774,0.171-47.569-0.165-71.353-0.404
	c-20.305-0.204-40.605-0.555-60.901-0.914c-16.338-0.29-32.679-0.586-48.993-1.072c-13.504-0.403-26.969-1.112-40.455-1.645
	c-10.205-0.401-20.426-0.712-30.633-1.106c-18.766-0.726-37.535-1.436-56.289-2.241c-23.181-0.995-46.335-2.126-69.517-3.118
	c-25.499-1.092-51-2.175-76.524-3.11c-29.481-1.081-58.968-2.175-88.488-2.938c-34.466-0.891-68.97-1.462-103.462-2.114
	c-27.893-0.527-55.794-0.951-83.687-1.453c-25.913-0.466-51.82-1.021-77.734-1.451c-23.768-0.395-47.54-0.771-71.316-0.982
	c-24.604-0.218-49.215-0.246-73.823-0.321c-26.099-0.081-52.2-0.044-78.297-0.213c-10.209-0.066-20.408-0.553-30.612-0.848
	C7.313,18.474,7.374,18.387,7.436,18.301z"/>
<path fill-rule="evenodd" clip-rule="evenodd" d="M-31.865,27.621c1.822,0,3.673-0.089,5.462,0.016
	c9.099,0.53,18.026,0.198,26.809-0.886c16.522-2.039,33.5-1.931,50.436-1.899c23.57,0.043,47.055-0.344,70.375-1.927
	c14.544-0.988,28.717-2.591,42.552-4.697c24.526-3.735,49.776-5.366,75.815-5.654c25.856-0.286,51.568,0.302,77.295,1.09
	c18.772,0.575,37.518,1.304,56.292,1.863c15.206,0.454,30.437,0.768,45.659,1.129c20.113,0.477,40.231,0.922,60.344,1.412
	c15.6,0.38,31.193,0.804,46.789,1.216c21.611,0.572,43.219,1.163,64.832,1.722c21.039,0.544,42.072,1.172,63.129,1.553
	c22.761,0.412,45.549,0.831,68.321,0.801c37.834-0.051,75.665-0.5,113.5-0.697c19.764-0.103,39.531-0.016,59.297-0.03
	c12.234-0.01,24.469-0.12,36.698-0.066c42.729,0.191,85.476-0.485,128.187,0.521c26.51,0.624,53.021,1.22,79.537,1.792
	c40.236,0.87,80.479,1.733,120.726,2.538c6.941,0.14,13.922-0.102,20.877-0.033c14.299,0.141,28.597,0.364,42.893,0.567
	c13.917,0.197,27.837,0.369,41.745,0.63c15.611,0.293,31.219,0.601,46.81,1.03c27.045,0.746,54.063,1.659,81.113,2.372
	c22.352,0.589,44.731,0.969,67.098,1.484c7.126,0.164,14.226,0.504,21.352,0.69c3.938,0.104,7.901,0.064,11.855,0.078
	c14.534,0.048,28.803,0.963,42.958,2.308c6.97,0.662,14.037,1.136,21.029,1.754c4.23,0.374,8.428,0.825,12.592,1.317
	c2.188,0.259,2.139,0.333,3.63,1.459c-0.313,0.064-0.753,0.22-0.914,0.179c-5.588-1.441-11.82-1.925-18.156-2.394
	c-11.471-0.851-22.799-2.091-34.313-2.774c-10.188-0.605-20.37-1.329-30.858-1.025c-7.433,0.215-14.985-0.405-22.497-0.589
	c-9.954-0.243-19.919-0.411-29.882-0.634c-12.398-0.277-24.804-0.516-37.186-0.885c-13.326-0.396-26.626-0.943-39.943-1.391
	c-9.757-0.327-19.519-0.635-29.286-0.885c-11.271-0.288-22.55-0.495-33.824-0.753c-17.849-0.406-35.694-0.861-53.552-1.221
	c-7.145-0.144-14.306-0.069-21.459-0.124c-23.717-0.183-47.437-0.286-71.141-0.6c-16.736-0.222-33.446-0.749-50.171-1.114
	c-12.221-0.267-24.447-0.466-36.666-0.743c-18.049-0.408-36.086-0.901-54.137-1.281c-22.19-0.466-44.383-0.919-66.59-1.252
	c-16.934-0.255-33.883-0.401-50.828-0.437c-20.333-0.041-40.668,0.133-61.004,0.131c-21.844-0.003-43.69-0.179-65.535-0.136
	c-18.076,0.036-36.149,0.289-54.225,0.431c-15.816,0.125-31.635,0.231-47.453,0.343c-12.99,0.091-25.984,0.317-38.968,0.231
	c-19.204-0.127-38.399-0.462-57.596-0.738c-12.221-0.177-24.447-0.334-36.653-0.633c-21.985-0.538-43.958-1.173-65.937-1.775
	c-12.024-0.329-24.041-0.72-36.07-1.005c-32.527-0.771-65.063-1.47-97.588-2.257c-23.122-0.56-46.238-1.157-69.338-1.849
	c-21.033-0.629-42.021-1.551-63.065-2.08c-23.12-0.581-46.257-0.763-69.449-0.353c-23.229,0.411-45.446,2.568-67.227,5.806
	c-17.84,2.65-36.135,4.622-54.931,5.279c-19.493,0.681-39.099,0.831-58.664,1.083c-12.605,0.163-25.255-0.078-37.73,0.943
	C4.67,27.117-1.888,27.878-8.569,28.267C-16.339,28.718-24.218,28.946-31.865,27.621z"/>
</svg>
