<?xml version="1.0" encoding="utf-8"?>
<!-- Generator: Adobe Illustrator 16.0.0, SVG Export Plug-In . SVG Version: 6.00 Build 0)  -->
<!DOCTYPE svg PUBLIC "-//W3C//DTD SVG 1.1//EN" "http://www.w3.org/Graphics/SVG/1.1/DTD/svg11.dtd">
<svg version="1.1" id="Layer_1" xmlns="http://www.w3.org/2000/svg" xmlns:xlink="http://www.w3.org/1999/xlink" x="0px" y="0px"
	 viewBox="0 0 1653.435 52.498" enable-background="new 0 0 1653.435 52.498"
	 xml:space="preserve" shape-rendering="optimizeSpeed" stroke="#6c6861" vector-effect="non-scaling-stroke" stroke-width="1">
<g>
	<path fill-rule="evenodd" clip-rule="evenodd" d="M-25.446,10.465c3.126,0.098,6.246,0.253,9.38,0.282
		c20.719,0.194,41.448,0.31,62.162,0.552c23.552,0.275,47.098,0.612,70.633,1.005c23.042,0.386,46.181,0.574,69.063,1.397
		c24.59,0.886,49.176,0.981,73.83,1.151c20.718,0.142,41.425,0.485,62.129,0.799c18.61,0.281,37.213,0.612,55.808,0.978
		c28.013,0.55,56.012,1.176,84.026,1.716c13.612,0.263,27.254,0.371,40.875,0.607c21.732,0.377,43.454,0.802,65.18,1.209
		c20.69,0.388,41.371,0.84,62.07,1.155c36.958,0.563,73.924,1.099,110.898,1.546c36.188,0.438,72.39,0.768,108.591,1.109
		c18.357,0.174,36.726,0.281,55.088,0.396c24.912,0.157,49.825,0.391,74.74,0.415c36.198,0.035,72.397-0.088,108.6-0.143
		c32.527-0.051,65.058-0.078,97.588-0.158c27.294-0.067,54.59-0.274,81.88-0.28c45.423-0.012,90.857-0.121,136.252,0.22
		c27.059,0.203,54.098,0.318,81.008-0.325c40.523-0.969,81.07-2.06,120.926-4.688c7.427-0.49,14.936-0.927,22.162-1.625
		c6.696-0.646,13.06-1.613,19.58-2.434c2.54-0.32,5.104-0.627,7.921-0.734c-9.354,1.866-19.471,3.25-30.216,4.036
		c-21.141,1.549-42.338,3.071-64.062,3.698c-30.82,0.891-61.601,2.075-92.493,2.518c-29.068,0.416-58.257,0.032-87.394,0.003
		c-23.081-0.022-46.162-0.031-69.243-0.062c-11.541-0.017-23.079-0.128-34.617-0.094c-32.282,0.095-64.56,0.279-96.84,0.363
		c-40.95,0.106-81.92-0.044-122.851,0.267c-56.199,0.425-112.348,0.086-168.506-0.417c-47.738-0.427-95.476-0.877-143.206-1.359
		c-24.124-0.244-48.248-0.5-72.346-0.898c-32.487-0.537-64.942-1.238-97.42-1.83c-39.023-0.71-78.059-1.353-117.08-2.074
		c-29.328-0.542-58.627-1.237-87.962-1.731c-45.58-0.768-91.135-1.712-136.843-1.637c-13.583,0.022-27.176-0.604-40.762-0.942
		c-16.997-0.424-33.969-0.995-50.991-1.26c-39.312-0.611-78.647-1.084-117.975-1.597C9.714,11.409-4.714,11.271-19.14,11.095
		c-2.248-0.027-4.88,0.21-6.205-0.657L-25.446,10.465z"/>
	<path fill-rule="evenodd" clip-rule="evenodd" d="M1654.943,16.958c-6.897,0.144-13.804,0.417-20.69,0.41
		c-63.812-0.063-127.618-0.198-191.43-0.269c-86.312-0.096-172.634-0.296-258.932-0.19c-114.015,0.141-228.013,0.548-342.022,0.814
		c-92.147,0.216-184.307,0.383-276.465,0.593c-130.145,0.297-260.287,0.636-390.435,0.915c-57.972,0.125-115.963,0.15-173.944,0.219
		c-1.548,0.001-3.097-0.026-4.624-0.307c41.855,0,83.728,0.101,125.56-0.02c101.734-0.292,203.44-0.737,305.173-1.022
		c70.812-0.199,141.655-0.212,212.478-0.352c54.77-0.107,109.53-0.29,164.294-0.429c77.962-0.198,155.921-0.483,233.89-0.561
		c152.104-0.15,304.217-0.233,456.321-0.237c53.462-0.002,106.923,0.311,160.483,0.471
		C1654.691,16.985,1654.943,16.958,1654.943,16.958z"/>
	<path fill-rule="evenodd" clip-rule="evenodd" d="M-33.981,22.884c1.739,0,3.507-0.089,5.216,0.016
		c8.689,0.53,17.215,0.198,25.602-0.886C12.614,19.975,28.827,20.083,45,20.114c22.509,0.043,44.935-0.344,67.205-1.927
		c13.89-0.988,27.423-2.591,40.635-4.697c23.422-3.735,47.534-5.366,72.4-5.654c24.692-0.286,49.245,0.302,73.813,1.09
		c17.926,0.575,35.827,1.304,53.755,1.863c14.521,0.454,29.065,0.768,43.602,1.129c19.207,0.477,38.419,0.922,57.625,1.412
		c14.897,0.38,29.788,0.804,44.681,1.216c20.638,0.572,41.271,1.163,61.911,1.722c20.092,0.544,40.176,1.172,60.287,1.553
		c21.735,0.412,43.496,0.831,65.242,0.801c36.13-0.051,72.256-0.5,108.389-0.697c18.871-0.103,37.75-0.016,56.625-0.03
		c11.683-0.01,23.366-0.12,35.045-0.066c40.804,0.191,81.625-0.485,122.412,0.521c25.314,0.624,50.631,1.22,75.953,1.792
		c38.425,0.87,76.854,1.733,115.287,2.538c6.629,0.14,13.296-0.102,19.938-0.033c13.654,0.141,27.309,0.364,40.961,0.567
		c13.289,0.197,26.582,0.369,39.864,0.63c14.908,0.293,29.812,0.601,44.701,1.03c25.825,0.746,51.628,1.659,77.458,2.372
		c21.346,0.589,42.718,0.969,64.075,1.484c6.806,0.164,13.585,0.504,20.39,0.69c3.761,0.104,7.546,0.064,11.321,0.078
		c13.881,0.048,27.507,0.963,41.023,2.308c6.655,0.662,13.404,1.136,20.082,1.754c4.039,0.374,8.048,0.825,12.024,1.317
		c2.09,0.259,2.043,0.333,3.467,1.459c-0.3,0.064-0.72,0.22-0.873,0.179c-5.336-1.441-11.289-1.925-17.338-2.394
		c-10.954-0.851-21.771-2.091-32.768-2.774c-9.729-0.605-19.454-1.329-29.47-1.025c-7.097,0.215-14.31-0.405-21.483-0.589
		c-9.505-0.243-19.021-0.411-28.536-0.634c-11.839-0.277-23.686-0.516-35.51-0.885c-12.725-0.396-25.427-0.943-38.143-1.391
		c-9.318-0.327-18.642-0.635-27.969-0.885c-10.763-0.288-21.534-0.495-32.3-0.753c-17.045-0.406-34.086-0.861-51.139-1.221
		c-6.823-0.144-13.661-0.069-20.493-0.124c-22.647-0.183-45.299-0.286-67.936-0.6c-15.982-0.222-31.94-0.749-47.91-1.114
		c-11.67-0.267-23.348-0.466-35.017-0.743c-17.232-0.408-34.459-0.901-51.696-1.281c-21.191-0.466-42.384-0.919-63.59-1.252
		c-16.171-0.255-32.357-0.401-48.539-0.437c-19.418-0.041-38.837,0.133-58.255,0.131c-20.861-0.003-41.723-0.179-62.584-0.136
		c-17.262,0.036-34.521,0.289-51.782,0.431c-15.104,0.125-30.21,0.231-45.315,0.343c-12.404,0.091-24.813,0.317-37.212,0.231
		c-18.339-0.127-36.67-0.462-55.002-0.738c-11.67-0.177-23.345-0.334-35.001-0.633c-20.995-0.538-41.979-1.173-62.967-1.775
		c-11.482-0.329-22.957-0.72-34.444-1.005c-31.062-0.771-62.132-1.47-93.192-2.257c-22.08-0.56-44.155-1.157-66.215-1.849
		c-20.085-0.629-40.128-1.551-60.224-2.08c-22.078-0.581-44.173-0.763-66.32-0.353c-22.183,0.411-43.399,2.568-64.199,5.806
		c-17.036,2.65-34.507,4.622-52.456,5.279c-18.616,0.681-37.338,0.831-56.022,1.083c-12.037,0.163-24.117-0.078-36.03,0.943
		c-6.336,0.544-12.598,1.305-18.979,1.693C-19.156,23.98-26.679,24.209-33.981,22.884z"/>
	<path fill-rule="evenodd" clip-rule="evenodd" d="M1654.942,30.421c-1.317,0.205-2.609,0.447-3.95,0.611
		c-7.443,0.906-14.853,1.879-22.36,2.664c-7.294,0.766-14.679,0.383-22.011-0.053c-10.152-0.604-20.313-1.191-30.439-1.885
		c-9.219-0.631-18.36-1.529-27.607-2.074c-25.623-1.512-50.829-1.002-75.571,2.816c-17.813,2.748-35.849,5.254-54.016,7.506
		c-33.56,4.16-67.871,5.396-102.595,4.404c-21.71-0.623-43.465-1.098-65.085-2.129c-21.07-1.006-42.014-2.57-62.975-4.006
		c-37.31-2.555-74.534-5.365-111.906-7.73c-20.092-1.271-40.375-2.064-60.631-2.656c-20.982-0.611-42.034-0.807-63.062-1.021
		c-23.009-0.236-46.037-0.127-69.035-0.461c-24.618-0.357-49.208-1.094-73.817-1.592c-16.708-0.338-33.426-0.572-50.143-0.812
		c-24.443-0.352-48.886-0.822-73.339-0.957c-24.628-0.135-49.277-0.078-73.899,0.188c-22.645,0.244-45.282,0.789-67.9,1.371
		c-15.789,0.408-31.536,1.143-47.312,1.666c-22.961,0.764-45.965,1.5-68.982,1.084c-20.464-0.371-40.867-1.35-61.322-1.877
		c-18.844-0.486-37.73-1.104-56.578-0.986c-23.535,0.145-47.07,0.846-70.562,1.582c-11.265,0.354-22.396,1.475-33.646,2.01
		c-20.909,0.996-41.853,1.857-62.796,2.699c-15.392,0.617-30.809,1.121-46.213,1.668c-15.116,0.537-30.244,0.375-45.207-0.578
		c-15.631-0.994-31.117-2.445-46.679-3.664C1.873,27.94-1.611,27.81-5.16,27.612c0.746-1.295,2.252-0.832,3.574-0.719
		c14.111,1.219,28.198,2.502,42.347,3.629c19.939,1.588,40.054,1.709,60.215,1.121c8.786-0.256,17.578-0.49,26.342-0.859
		c24.16-1.012,48.322-2.021,72.451-3.164c20.37-0.965,40.645-2.445,61.058-3.1c27.249-0.873,54.584-1.41,81.926-0.498
		c21.514,0.719,43.024,1.457,64.543,2.145c24.989,0.799,49.987,0.527,74.95-0.158c20.092-0.553,40.131-1.477,60.225-2.023
		c21.354-0.582,42.738-0.949,64.116-1.338c13.477-0.246,26.965-0.508,40.449-0.506c19.422,0.006,38.843,0.207,58.261,0.393
		c17.798,0.17,35.599,0.354,53.385,0.664c27.133,0.475,54.249,1.125,81.385,1.582c28.926,0.488,57.86,0.9,86.799,1.227
		c26.064,0.293,52.161,0.176,78.198,0.697c28.745,0.576,57.348,2.031,85.801,4.01c15.98,1.111,32.027,2.031,47.998,3.166
		c17.383,1.236,34.682,2.723,52.084,3.916c22.729,1.559,45.372,3.414,68.361,4.131c19.364,0.605,38.71,1.402,58.097,1.797
		c27.361,0.555,54.669,0.174,81.615-2.326c22.381-2.076,44.245-4.98,65.686-8.482c17.877-2.92,36.221-4.711,55.275-4.779
		c7.883-0.027,15.771,0.375,23.664,0.537c13.366,0.275,26.192,2.025,39.349,2.824c12.966,0.787,25.873,2.059,39.084,1.699
		c3.555-0.096,7.106-0.404,10.588-0.756c7.329-0.74,14.611-1.574,21.913-2.369C1654.698,30.188,1654.817,30.306,1654.942,30.421z"/>
</g>
</svg>
