<?xml version="1.0" encoding="utf-8"?>
<!-- Generator: Adobe Illustrator 16.0.0, SVG Export Plug-In . SVG Version: 6.00 Build 0)  -->
<!DOCTYPE svg PUBLIC "-//W3C//DTD SVG 1.1//EN" "http://www.w3.org/Graphics/SVG/1.1/DTD/svg11.dtd">
<svg version="1.1" id="Layer_1" xmlns="http://www.w3.org/2000/svg" xmlns:xlink="http://www.w3.org/1999/xlink" x="0px" y="0px"
	 viewBox="50 0 1403.435 52.498" enable-background="new 0 0 1653.435 52.498"
	 xml:space="preserve" shape-rendering="optimizeSpeed" stroke="#6c6861" vector-effect="non-scaling-stroke" stroke-width="1">
<path fill-rule="evenodd" clip-rule="evenodd" d="M-13.907,17.208c9.237,0.126,18.474,0.303,27.713,0.366
	c19.594,0.134,39.192,0.198,58.789,0.312c11.326,0.065,22.652,0.273,33.977,0.238c27.683-0.087,55.364-0.277,83.046-0.428
	c5.394-0.03,10.79-0.038,16.181-0.106c21.918-0.279,43.832-0.676,65.752-0.844c24.786-0.191,49.579-0.167,74.367-0.271
	c12.22-0.051,24.437-0.253,36.655-0.259c43.153-0.022,86.308-0.112,129.458,0.062c31.989,0.13,63.998,0.371,95.949,1.036
	c37.882,0.789,75.725,1.999,113.556,3.194c23.129,0.73,46.203,1.813,69.313,2.668c12.898,0.478,25.83,0.768,38.734,1.224
	c19.703,0.696,39.377,1.576,59.096,2.171c22.948,0.691,45.937,1.104,68.896,1.742c15.957,0.444,31.893,1.058,47.836,1.609
	c15.047,0.521,30.107,0.988,45.137,1.612c16.1,0.67,32.154,1.545,48.246,2.236c13.594,0.585,27.213,1.06,40.826,1.54
	c10.748,0.38,21.496,0.872,32.264,1.001c22.988,0.276,45.994,0.537,68.982,0.456c25.521-0.091,51.049-0.414,76.547-0.919
	c29.441-0.582,58.859-1.442,88.277-2.24c24.037-0.651,48.072-1.341,72.094-2.102c20.793-0.658,41.545-1.724,62.359-2.083
	c18.176-0.313,36.209-1.151,54.289-1.855c18.271-0.711,36.475-1.648,54.322-3.632c4.904-0.545,5.701-0.497,8.891,0.145
	c-0.654,0.214-1.24,0.56-1.682,0.525c-5.529-0.423-10.631,0.575-15.928,0.904c-13.16,0.815-26.295,1.734-39.486,2.43
	c-14.271,0.753-28.586,1.375-42.908,1.908c-8.053,0.3-16.178,0.207-24.242,0.458c-25.459,0.792-50.902,1.709-76.365,2.49
	c-28.514,0.874-57.027,1.778-85.566,2.439c-36.084,0.836-72.18,1.664-108.293,2.065c-24.416,0.271-48.873-0.195-73.312-0.338
	c-8.799-0.051-17.615,0.019-26.391-0.213c-12.193-0.321-24.354-0.878-36.527-1.326c-10.025-0.369-20.062-0.684-30.072-1.104
	c-7.867-0.331-15.691-0.852-23.557-1.177c-18.967-0.782-37.932-1.58-56.924-2.223c-28.676-0.97-57.371-1.852-86.068-2.695
	c-14.889-0.437-29.816-0.617-44.702-1.082c-19.543-0.61-39.059-1.396-58.588-2.088c-11.47-0.405-22.958-0.715-34.417-1.174
	c-18.436-0.736-36.847-1.592-55.281-2.335c-10.204-0.411-20.428-0.724-30.651-1.03c-21.164-0.634-42.33-1.25-63.5-1.844
	c-39.849-1.117-79.751-1.584-119.667-1.806c-21.017-0.117-42.04-0.079-63.058-0.072c-23.362,0.009-46.723,0.056-70.083,0.099
	c-18.517,0.033-37.035,0.049-55.55,0.141c-29.488,0.146-58.98,0.274-88.462,0.548c-26.06,0.242-52.106,0.765-78.166,0.993
	c-24.262,0.212-48.536,0.318-72.801,0.253c-23.366-0.063-46.729-0.384-70.091-0.639c-13.085-0.142-26.162-0.379-39.243-0.573
	C-13.928,17.482-13.917,17.345-13.907,17.208z"/>
<path fill-rule="evenodd" clip-rule="evenodd" d="M1543.484,32.302c-8.115,0.604-16.199,1.307-24.35,1.788
	c-9.258,0.547-18.553,1.094-27.869,1.282c-10.758,0.217-21.561,0.061-32.338,0.029c-5.211-0.015-10.418-0.159-15.627-0.169
	c-19.771-0.039-39.549-0.008-59.32-0.081c-12.043-0.044-24.08-0.312-36.123-0.326c-8.965-0.012-17.932,0.186-26.896,0.35
	c-36.998,0.679-73.984,1.566-111.002,2.012c-27.303,0.329-54.643,0.179-81.963,0.075c-16.172-0.061-32.354-0.325-48.506-0.716
	c-22.436-0.542-44.854-1.257-67.268-1.953c-22.236-0.69-44.449-1.526-66.693-2.155c-21.881-0.62-43.801-0.988-65.683-1.608
	c-12.369-0.351-24.695-1.008-37.053-1.485c-13.246-0.513-26.505-0.967-39.755-1.464c-12.893-0.482-25.775-1.023-38.674-1.472
	c-18.27-0.636-36.542-1.276-54.831-1.793c-23.138-0.654-46.282-1.286-69.441-1.74c-20.639-0.403-41.301-0.556-61.953-0.81
	c-11.321-0.14-22.643-0.302-33.966-0.377c-13.665-0.091-27.332-0.082-40.998-0.15c-22.833-0.114-45.67-0.154-68.495-0.408
	c-32.331-0.36-64.651-0.896-96.977-1.34c-16.53-0.228-33.062-0.411-49.593-0.624c-36.123-0.466-72.246-0.922-108.366-1.414
	c-20.123-0.274-40.242-0.602-60.361-0.928c-19.22-0.312-38.445-0.602-57.656-1.001c-14.363-0.299-28.709-0.765-43.063-1.144
	c-9.15-0.241-18.304-0.457-27.456-0.683c-1.034-0.025-2.07-0.041-3.072-0.516c3.626,0.083,7.255,0.158,10.879,0.252
	c10.047,0.259,20.087,0.581,30.141,0.778c20.293,0.399,40.592,0.746,60.892,1.09c22.633,0.383,45.266,0.756,67.902,1.103
	c18.683,0.285,37.369,0.521,56.054,0.786c25.688,0.365,51.374,0.74,77.062,1.102c10.78,0.151,21.563,0.259,32.341,0.422
	c24.967,0.378,49.932,0.791,74.898,1.154c3.757,0.055,7.532-0.152,11.291-0.104c14.711,0.187,29.417,0.494,44.129,0.629
	c14.913,0.136,29.834,0.067,44.748,0.182c33.061,0.254,66.119,0.543,99.177,0.863c15.458,0.149,30.921,0.304,46.363,0.638
	c20.643,0.448,41.268,1.063,61.898,1.625c13.635,0.37,27.275,0.717,40.897,1.171c15.95,0.53,31.884,1.172,47.827,1.755
	c13.795,0.504,27.6,0.958,41.388,1.5c13.418,0.527,26.816,1.154,40.232,1.703c3.934,0.161,7.914,0.382,11.832,0.275
	c16.616-0.449,32.995,0.835,49.495,1.211c13.461,0.306,26.906,0.773,40.357,1.188c19.188,0.592,38.371,1.215,57.562,1.796
	c13.092,0.397,26.211,0.641,39.281,1.137c30.146,1.146,60.375,0.949,90.568,1.147c20.99,0.137,42.006-0.316,63.006-0.596
	c24.254-0.322,48.5-0.743,72.75-1.121c18.861-0.295,37.719-0.794,56.58-0.833c24.084-0.051,48.166,0.311,72.252,0.417
	c18.877,0.084,37.762,0.15,56.641,0.04c17.281-0.102,34.367-1.166,51.336-2.604c1.74-0.147,3.5-0.25,5.254-0.373
	C1543.273,31.978,1543.377,32.14,1543.484,32.302z"/>
<path fill-rule="evenodd" clip-rule="evenodd" d="M-26.423,29.211c10.882-0.519,21.817-0.885,32.636-1.594
	c15.456-1.013,30.799-2.362,46.246-3.409c12.433-0.842,24.938-1.479,37.428-2.149c13.733-0.737,27.45-1.623,41.235-2.054
	c16.663-0.521,33.39-0.853,50.09-0.866c21.205-0.018,42.433,0.175,63.611,0.632c19.021,0.411,38.016,1.177,56.969,2.018
	c19.131,0.85,38.173,2.094,57.3,2.967c24.133,1.102,48.295,2.099,72.478,2.948c12.713,0.447,25.501,0.46,38.252,0.712
	c21.892,0.432,43.771,1.026,65.671,1.317c33.604,0.445,67.222,0.696,100.833,1.021c17.437,0.168,34.875,0.393,52.314,0.457
	c18.503,0.069,37.011-0.127,55.513-0.016c25.162,0.151,50.318,0.473,75.479,0.744c19.593,0.211,39.191,0.383,58.775,0.711
	c14.729,0.245,29.442,0.692,44.159,1.08c30.33,0.8,60.639,1.824,90.99,2.369c27.832,0.5,55.707,0.584,83.566,0.673
	c16.52,0.054,33.047-0.185,49.562-0.389c23.182-0.287,46.371-0.537,69.533-1.036c27.289-0.588,54.58-1.291,81.822-2.197
	c20.785-0.691,41.492-1.827,62.256-2.668c12.525-0.508,25.074-0.979,37.639-1.201c23.883-0.423,47.777-0.842,71.676-0.896
	c13.266-0.029,26.545,0.676,39.816,1.056c12.559,0.359,25.129,1.097,37.666,0.996c15.781-0.127,31.539-0.903,47.295-1.466
	c7.869-0.281,15.75-0.6,23.562-1.091c16.348-1.026,32.654-2.182,48.982-3.271c0.963-0.063,1.965-0.008,3.195,0.342
	c-0.791,0.203-1.541,0.54-2.373,0.587c-4.279,0.24-8.59,0.358-12.865,0.607c-15.84,0.921-31.648,1.955-47.51,2.801
	c-19.977,1.065-39.975,2.286-60.137,2.06c-14.359-0.161-28.689-0.819-43.039-1.194c-12.021-0.315-24.047-0.675-36.086-0.771
	c-12.93-0.104-25.879-0.041-38.807,0.165c-15.086,0.24-30.166,0.64-45.229,1.108c-16.67,0.519-33.328,1.155-49.977,1.813
	c-16.105,0.636-32.174,1.474-48.289,2.024c-16.842,0.575-33.715,0.998-50.592,1.333c-20.289,0.403-40.596,0.685-60.9,0.946
	c-28.568,0.367-57.133,0.771-85.707,0.962c-18.693,0.125-37.404,0.043-56.094-0.199c-22.104-0.287-44.199-0.764-66.281-1.312
	c-22.611-0.562-45.184-1.451-67.801-1.941c-29.806-0.646-59.632-1.107-89.458-1.526c-22.818-0.32-45.649-0.543-68.477-0.642
	c-18.515-0.079-37.036,0.202-55.55,0.118c-19.77-0.091-39.535-0.444-59.305-0.641c-14.201-0.142-28.41-0.174-42.611-0.324
	c-25.168-0.267-50.342-0.468-75.496-0.916c-29.635-0.527-59.266-1.166-88.865-1.997c-15.052-0.423-30.035-1.352-45.039-2.09
	c-15.902-0.782-31.779-1.664-47.691-2.404c-18.413-0.855-36.833-1.702-55.283-2.366c-13.97-0.503-27.984-0.844-41.993-1.022
	c-19.761-0.251-39.563-0.637-59.296-0.32c-22.783,0.364-45.532,1.313-68.249,2.238c-11.787,0.479-23.48,1.433-35.203,2.211
	c-21.307,1.416-42.58,2.938-63.915,4.261c-9.417,0.584-18.954,0.793-28.437,1.172C-26.423,29.531-26.423,29.371-26.423,29.211z"/>
<path fill-rule="evenodd" clip-rule="evenodd" d="M-5.724,16.175c10.05,0.153,20.096,0.375,30.146,0.448
	c21.035,0.154,42.072,0.272,63.109,0.33c37.393,0.104,74.79,0.023,112.176,0.265c28.394,0.184,56.775,0.743,85.162,1.141
	c13.837,0.194,27.678,0.349,41.507,0.615c19.578,0.379,39.143,0.882,58.719,1.256c8.441,0.16,16.904,0.079,25.35,0.196
	c23.72,0.33,47.443,0.64,71.152,1.082c28.194,0.525,56.388,1.084,84.558,1.812c22.61,0.585,45.182,1.46,67.775,2.176
	c13.267,0.42,26.554,0.727,39.816,1.18c12.183,0.416,24.342,0.979,36.518,1.442c16.656,0.636,33.329,1.195,49.975,1.868
	c16.102,0.651,32.18,1.423,48.277,2.109c13.949,0.596,27.902,1.187,41.867,1.711c25.785,0.97,51.571,1.93,77.37,2.812
	c13.08,0.448,26.182,0.807,39.289,1.055c31.066,0.587,62.135,1.196,93.213,1.583c24.428,0.304,48.875,0.37,73.312,0.389
	c21.564,0.017,43.145-0.016,64.697-0.322c25.154-0.357,50.299-0.938,75.416-1.608c18.83-0.502,37.635-1.219,56.42-1.983
	c21.473-0.875,42.945-1.777,64.35-2.913c19.266-1.022,38.434-2.404,57.662-3.579c25.441-1.556,50.916-3,76.334-4.628
	c9.934-0.637,19.773-1.585,29.604-2.5c10.352-0.963,20.645-2.057,30.963-3.093c1.002-0.101,2.01-0.189,3.016-0.284
	c0.146,0.153,0.291,0.306,0.436,0.458c-1.109,0.221-2.172,0.538-3.332,0.646c-13.699,1.284-27.35,2.714-41.143,3.755
	c-18.945,1.431-38.01,2.553-57.018,3.825c-8.352,0.559-16.67,1.223-25.033,1.736c-17.971,1.104-35.965,2.136-53.941,3.206
	c-11.225,0.668-22.416,1.452-33.664,2.006c-14.113,0.693-28.264,1.232-42.406,1.783c-15.045,0.587-30.096,1.119-45.145,1.657
	c-11.285,0.404-22.562,0.957-33.871,1.139c-35.578,0.571-71.166,1.187-106.76,1.421c-25.879,0.171-51.777-0.165-77.666-0.404
	c-22.102-0.204-44.197-0.555-66.291-0.914c-17.783-0.29-35.57-0.586-53.328-1.072c-14.699-0.403-29.355-1.112-44.037-1.645
	c-11.107-0.401-22.231-0.712-33.343-1.106c-20.428-0.726-40.857-1.436-61.27-2.241c-25.232-0.995-50.437-2.126-75.67-3.118
	c-27.754-1.092-55.514-2.175-83.296-3.11c-32.09-1.081-64.187-2.175-96.32-2.938c-37.516-0.891-75.074-1.462-112.618-2.114
	c-30.361-0.527-60.731-0.951-91.093-1.453c-28.207-0.466-56.406-1.021-84.614-1.451c-25.871-0.395-51.747-0.771-77.627-0.982
	c-26.781-0.218-53.571-0.246-80.356-0.321c-28.409-0.081-56.82-0.044-85.227-0.213c-11.113-0.066-22.214-0.553-33.321-0.848
	C-5.857,16.348-5.791,16.261-5.724,16.175z"/>
</svg>
