<?xml version="1.0" standalone="no"?>
<!DOCTYPE svg PUBLIC "-//W3C//DTD SVG 1.1//EN" "http://www.w3.org/Graphics/SVG/1.1/DTD/svg11.dtd">
<svg width="100%" height="100%" viewBox="0 0 60 40" version="1.1" xmlns="http://www.w3.org/2000/svg" xmlns:xlink="http://www.w3.org/1999/xlink" xml:space="preserve" style="fill-rule:evenodd;clip-rule:evenodd;stroke-linejoin:round;stroke-miterlimit:1.41421;">
    <g>
        <path d="M5.21347,26.7083C4.98713,21.3023 7.78291,17.4954 11.8983,14.6714C14.6857,12.7586 17.9495,11.7302 21.4227,11.7209C22.7615,11.7171 24.0996,11.7202 25.4054,11.7202C26.0621,8.70188 27.8851,7.30646 30.9064,7.33267C31.7097,7.33961 32.1792,7.58015 32.279,8.44053C32.3987,9.46744 32.5843,10.4859 32.7669,11.6778C33.6922,11.6778 34.5346,11.6762 35.3763,11.6778C38.3792,11.6855 38.3316,11.4897 41.3077,11.7695C43.4667,11.973 45.6871,12.5335 47.6673,13.4178C51.2986,15.0384 55.4393,18.3696 55.5897,22.081C55.6472,23.4841 55.5996,24.8919 55.5996,26.4377C56.139,26.477 56.6684,26.4832 57.1878,26.5579C59.0813,26.8309 60.0626,28.3882 59.4419,30.1822C59.3376,30.4836 59.0269,30.8275 58.7353,30.9254C58.0471,31.1559 57.3159,31.3564 56.5963,31.3833C50.6549,31.6054 44.7119,31.7819 38.769,31.9785C31.9682,32.2044 25.1675,32.4843 18.3653,32.6462C14.8744,32.7287 11.3781,32.5436 7.88572,32.5984C5.91011,32.6292 3.9882,32.5853 2.08624,31.9423C0.982971,31.5691 0.54565,30.866 0.398343,29.7905C0.245664,28.6773 0.776586,27.9572 1.7057,27.6188C2.77828,27.2287 3.92222,27.0336 5.21347,26.7083ZM29.3044,28.8446C36.2985,28.897 43.2473,28.2787 50.1746,27.4145C51.6208,27.2341 53.5488,27.645 54.3122,26.1131C54.9613,24.8102 55.1194,23.1203 55.0495,21.6231C54.8861,18.1561 50.4354,15.1995 47.0596,13.8303C44.9306,12.9668 42.6649,12.276 40.3011,12.2922C37.6672,12.3099 38.1022,12.3354 35.4714,12.4433C31.6821,12.5983 27.915,12.7748 24.1057,12.4418C18.7059,11.9707 13.7681,13.3068 9.85596,17.3952C7.80056,19.5423 6.36047,21.9808 6.217,25.0415C6.12493,27.0151 6.34973,27.3474 8.24248,27.5663C15.2388,28.3751 22.2551,28.9078 29.3044,28.8446ZM26.1818,31.7596C26.1818,31.7202 26.1818,31.6809 26.1818,31.6416C26.8547,31.6015 27.5268,31.536 28.1996,31.526C33.8902,31.4311 39.5822,31.4034 45.2712,31.2392C49.1235,31.1274 52.9696,30.8306 56.818,30.6108C57.1218,30.5939 57.4333,30.5607 57.7241,30.4759C58.9279,30.1251 59.2263,29.0096 58.3924,28.0528C57.6497,27.2017 56.686,27.1608 55.6871,27.3212C53.3977,27.6874 51.1252,28.2317 48.8227,28.429C42.7286,28.9525 36.6276,29.5577 30.5205,29.695C25.2696,29.8129 20.0033,29.3542 14.7463,29.1005C12.8543,29.0096 10.9654,28.8045 9.0826,28.5902C7.99313,28.4668 6.82925,28.4159 5.8564,27.978C4.64188,27.4322 3.56776,27.7244 2.47063,28.0459C1.83383,28.2325 1.24843,28.6572 1.33129,29.5138C1.40111,30.2331 1.60673,30.8614 2.39544,31.0588C3.3982,31.3101 4.40788,31.721 5.41678,31.7303C12.3372,31.7881 19.2599,31.7596 26.1818,31.7596ZM26.0015,11.6469C27.9625,12.3531 29.8752,12.1789 31.8593,11.3779C31.7918,10.6593 31.7619,9.99554 31.6614,9.34178C31.4857,8.20462 31.2509,8.03655 30.0847,8.13755C29.6612,8.17378 29.2354,8.21773 28.8203,8.30716C27.147,8.66719 26.2018,9.78199 26.0015,11.6469Z" style="fill:black;"/>
        <path d="M29.3044,28.8446C22.2551,28.9078 15.2396,28.3758 8.24172,27.5656C6.34896,27.3466 6.12417,27.0136 6.21623,25.0407C6.35971,21.98 7.79979,19.5415 9.8552,17.3944C13.7673,13.306 18.7052,11.97 24.1049,12.441C27.9142,12.7741 31.6813,12.5975 35.4706,12.4426C38.1015,12.3338 37.6665,12.3092 40.3003,12.2914C42.6642,12.2753 44.929,12.966 47.0589,13.8295C50.4347,15.1987 54.8854,18.1553 55.0488,21.6223C55.1186,23.1195 54.9605,24.8094 54.3115,26.1123C53.5488,27.6442 51.62,27.2333 50.1738,27.4137C43.2473,28.2779 36.2977,28.897 29.3044,28.8446Z" style="fill:white;"/>
        <path d="M26.1818,31.7596C19.2599,31.7596 12.3372,31.7881 5.41601,31.7287C4.40711,31.7195 3.39744,31.3086 2.39467,31.0572C1.60596,30.8599 1.40111,30.2315 1.33052,29.5122C1.24766,28.6557 1.83306,28.2309 2.46986,28.0443C3.56623,27.7229 4.64111,27.4307 5.85564,27.9765C6.82848,28.4144 7.99237,28.4653 9.08183,28.5886C10.9654,28.803 12.8543,29.008 14.7455,29.099C20.0026,29.3526 25.2688,29.8121 30.5197,29.6934C36.6276,29.5562 42.7279,28.951 48.8219,28.4275C51.1244,28.2301 53.3969,27.6858 55.6863,27.3196C56.686,27.1593 57.6497,27.2001 58.3916,28.0513C59.2256,29.0073 58.9271,30.1236 57.7233,30.4744C57.4326,30.5584 57.1218,30.5916 56.8172,30.6093C52.9688,30.829 49.1227,31.1266 45.2705,31.2376C39.5815,31.4018 33.8894,31.4296 28.1989,31.5244C27.526,31.5352 26.8539,31.6007 26.181,31.6401C26.1818,31.6809 26.1818,31.7202 26.1818,31.7596Z" style="fill:white;"/>
        <path d="M26.0015,11.6469C26.2018,9.78199 27.1478,8.66719 28.8203,8.30793C29.2354,8.21927 29.6612,8.17455 30.0847,8.13832C31.2509,8.03655 31.4864,8.20539 31.6614,9.34255C31.7619,9.99632 31.7918,10.6601 31.8593,11.3786C29.8752,12.1789 27.9625,12.3531 26.0015,11.6469Z" style="fill:white;"/>
    </g>
</svg>
