<?xml version="1.0" standalone="no"?>
<!DOCTYPE svg PUBLIC "-//W3C//DTD SVG 1.1//EN" "http://www.w3.org/Graphics/SVG/1.1/DTD/svg11.dtd">
<svg width="100%" height="100%" viewBox="0 0 60 60" version="1.1" xmlns="http://www.w3.org/2000/svg" xmlns:xlink="http://www.w3.org/1999/xlink" xml:space="preserve" style="fill-rule:evenodd;clip-rule:evenodd;stroke-linejoin:round;stroke-miterlimit:1.41421;">
    <g id="Layer1">
        <g>
            <path d="M59.2192,2.98906C59.1431,2.197 58.5976,1.4627 57.5691,1.46946C39.4702,1.59478 21.4187,0.650373 3.32286,0.608379C3.2545,0.608379 3.1933,0.618049 3.13011,0.624143C3.07898,0.619374 3.03023,0.608379 2.97843,0.608379C2.03972,0.608379 1.25628,1.39169 1.25628,2.3304L1.25628,4.74141C1.25628,4.8315 1.27005,4.91893 1.28383,5.00583C1.26104,5.1383 1.24727,5.27661 1.25628,5.43027C2.20942,21.4499 0.455739,40.8962 0.739629,56.9211C0.742411,57.098 0.77394,57.2561 0.816729,57.4047C0.902836,58.1917 1.44836,58.9405 2.46178,58.9875C20.5391,59.8177 38.6273,59.1678 56.708,58.8153C57.5853,58.7978 58.1113,58.2462 58.2949,57.591C58.4887,57.3307 58.6065,56.9937 58.6024,56.5766C58.494,45.3614 58.6164,31.1029 58.8714,19.2814C59.3309,18.6772 59.347,17.7631 58.9204,17.1359C59.0268,12.5067 59.1519,7.94449 59.2911,3.53591C59.2972,3.33269 59.2663,3.15518 59.2192,2.98906ZM20.1857,4.31286C21.3945,4.33909 22.6043,4.36135 23.8132,4.3885C23.6836,8.26255 23.8206,12.1255 24.0947,15.9895C22.6841,15.9418 21.2741,15.8876 19.864,15.8304C20.0128,11.9921 20.0458,8.15128 20.1857,4.31286ZM12.6208,4.1682C13.9952,4.19178 15.3691,4.21364 16.7435,4.24053C16.6036,8.05139 16.5693,11.8653 16.4246,15.676C15.0449,15.6115 13.6652,15.5353 12.2855,15.4605C12.5821,11.7014 12.6181,7.93707 12.6208,4.1682ZM4.70045,4.74141L4.70045,4.06779C6.19329,4.07746 7.68454,4.09812 9.17659,4.1172C9.1746,7.83652 9.13724,11.5505 8.85402,15.2601C7.56041,15.18 6.26681,15.1036 4.97321,15.0122C4.97189,14.6317 4.97785,14.248 4.97387,13.8692C4.98633,13.728 4.98566,13.586 4.96778,13.4448C4.93585,10.7439 4.85677,8.06649 4.69979,5.42961C4.69369,5.3243 4.66813,5.23249 4.64733,5.13764C4.67992,5.0102 4.70045,4.87786 4.70045,4.74141ZM55.1513,55.4034C38.1598,55.7485 21.1597,56.2996 4.17082,55.6047C4.04603,44.2785 4.86736,30.172 4.97202,18.4557C21.7618,19.6423 38.5903,19.8711 55.4165,19.8912C55.179,31.1204 55.0632,44.7823 55.1513,55.4034ZM55.4918,16.4475C46.1749,16.4366 36.8566,16.3551 27.5459,16.09C27.2691,12.2194 27.1298,8.34932 27.256,4.46918C36.7692,4.69386 46.2812,4.9233 55.8053,4.91548C55.6889,8.65746 55.5846,12.5218 55.4918,16.4475Z" style="fill:black;fill-rule:nonzero;"/>
            <path d="M39.5933,13.5978C39.746,14.2984 40.2801,14.9019 41.209,14.9019L46.3754,14.9019C46.7973,14.9019 47.1383,14.7764 47.3999,14.5745C48.0141,14.3017 48.5124,13.6963 48.4418,13.0075C48.2824,11.461 48.2696,9.91105 48.2696,8.3578C48.2696,8.18294 48.2414,8.02715 48.2016,7.87984C48.1479,7.06553 47.5995,6.29122 46.5474,6.29122L41.5535,6.29122C40.9205,6.29122 40.4738,6.57511 40.202,6.97531C39.606,7.18727 39.1344,7.70391 39.1424,8.52989C39.1546,9.90959 39.3019,11.2832 39.3148,12.6629C39.3181,13.0405 39.4265,13.3485 39.5933,13.5978ZM44.8356,9.73539C44.8437,10.3099 44.8585,10.8837 44.8868,11.4575L42.7194,11.4575C42.6903,10.8837 42.6575,10.3093 42.6291,9.73539L44.8356,9.73539Z" style="fill:black;fill-rule:nonzero;"/>
            <path d="M53.6083,12.8353L53.6083,8.01337C53.6083,5.79246 50.1641,5.79246 50.1641,8.01337L50.1641,12.8353C50.1641,15.0562 53.6083,15.0562 53.6083,12.8353Z" style="fill:black;fill-rule:nonzero;"/>
            <path d="M30.1877,21.1013C29.8419,21.067 29.5573,21.1296 29.3206,21.248C18.7047,20.839 10.3479,31.0976 12.3391,41.7081C13.8897,49.9667 22.1709,54.3978 29.9926,54.0278C37.3076,53.6821 44.5801,49.2107 46.5013,41.8782C47.6361,37.5487 46.3519,32.8695 44.2061,29.0822C41.3006,23.9532 35.7979,21.6628 30.1877,21.1013ZM43.0354,41.5136C41.6127,46.945 35.7656,49.9801 30.569,50.54C24.8257,51.1574 19.2557,48.7518 16.5898,43.5075C11.9609,34.4006 20.9495,23.0074 30.7628,24.8294C31.0959,24.8913 31.3965,24.8576 31.6643,24.7675C39.3302,26.2821 45.1638,33.3922 43.0354,41.5136Z" style="fill:black;fill-rule:nonzero;"/>
            <path d="M29.9768,27.3904C29.6999,27.3615 29.4548,27.3891 29.2162,27.462C26.1635,27.4042 23.2821,28.7819 21.2706,31.2067C19.201,33.6997 18.3525,36.9273 18.94,40.0607C19.6372,43.7699 23.1635,47.7611 29.2609,47.7617L29.2615,47.7617C29.4462,47.7617 29.6302,47.7564 29.8141,47.7482C34.6749,47.5182 38.8383,44.4264 39.9382,40.2262C40.7878,36.9825 39.441,33.8968 38.5625,32.3455C36.9772,29.5451 33.9284,27.7859 29.9768,27.3904ZM36.0145,39.5003C35.3439,42.0598 32.4984,43.4779 29.9754,43.7496C29.6869,43.7806 29.3949,43.7967 29.1089,43.7967C26.514,43.7967 24.32,42.5266 23.2393,40.401C22.3382,38.629 22.4814,36.537 23.6318,34.6614C24.8594,32.6596 26.9267,31.415 29.0261,31.415C29.3527,31.415 29.682,31.4459 30.0056,31.5053C30.2515,31.5518 30.4796,31.5523 30.7063,31.5139C32.6355,31.9512 34.2984,33.0994 35.2941,34.6883C36.2083,36.147 36.4572,37.8111 36.0145,39.5003Z" style="fill:black;fill-rule:nonzero;"/>
            <path d="M31.229,32.8741C30.3793,32.4746 29.3784,32.6285 28.8731,33.4924C28.4312,34.2471 28.6417,35.4486 29.491,35.8488C30.0574,36.1152 30.4156,36.3593 30.8287,36.8263C31.0816,37.1121 31.2114,37.6382 31.2215,37.9779C31.2853,40.1938 34.7296,40.2004 34.6658,37.9779C34.5998,35.7419 33.2397,33.8206 31.229,32.8741Z" style="fill:black;fill-rule:nonzero;"/>
        </g>
    </g>
</svg>
