<?xml version="1.0" standalone="no"?>
<!DOCTYPE svg PUBLIC "-//W3C//DTD SVG 1.1//EN" "http://www.w3.org/Graphics/SVG/1.1/DTD/svg11.dtd">
<svg width="100%" height="100%" viewBox="0 0 60 60" version="1.1" xmlns="http://www.w3.org/2000/svg" xmlns:xlink="http://www.w3.org/1999/xlink" xml:space="preserve" style="fill-rule:evenodd;clip-rule:evenodd;stroke-linejoin:round;stroke-miterlimit:1.41421;">
    <g>
        <path d="M31.8015,9.53817C35.0533,8.96802 37.284,10.0823 39.3099,12.2588C42.4446,15.6255 45.0406,19.1808 45.1577,23.9891C45.1869,25.2215 45.2021,26.5536 44.7891,27.6787C43.4917,31.1993 42.0273,34.6321 39.6437,37.6422C37.3794,40.4994 35.4663,43.632 33.2984,46.5683C32.4389,47.7314 31.3864,48.7882 30.2775,49.7236C28.6571,51.0915 27.5233,50.8585 26.435,49.1437C23.865,45.0963 21.346,41.0164 18.711,37.0135C16.2895,33.3325 15.0462,29.3122 14.8457,24.9429C14.6744,21.212 15.8548,17.995 18.4259,15.245C22.1351,11.2724 26.642,9.26935 31.8015,9.53817ZM28.5367,49.1752C30.3523,47.262 32.1321,45.6643 33.5694,43.8C35.1574,41.7427 36.2706,39.3179 37.878,37.2769C40.1185,34.4348 41.6045,31.2589 42.8446,27.9161C44.1865,24.298 43.5502,20.7752 41.6306,17.7055C37.5268,11.1489 34.8875,10.1072 27.2642,11.6583C21.4023,12.8506 14.8663,19.042 16.2667,26.8745C16.787,29.7881 17.5078,32.5868 19.0546,35.1242C21.3351,38.8638 23.6027,42.612 25.9559,46.306C26.5532,47.2425 27.4517,47.9872 28.5367,49.1752Z" style="fill:black;"/>
        <path d="M28.5367,49.1752C27.4517,47.9872 26.5532,47.2425 25.9559,46.306C23.6027,42.612 21.3341,38.8638 19.0546,35.1242C17.5067,32.5868 16.787,29.7881 16.2667,26.8745C14.8674,19.042 21.4023,12.8506 27.2642,11.6583C34.8875,10.1072 37.5268,11.1489 41.6306,17.7055C43.5502,20.7752 44.1865,24.298 42.8446,27.9161C41.6045,31.2589 40.1185,34.4348 37.878,37.2769C36.2706,39.3168 35.1574,41.7427 33.5694,43.8C32.1321,45.6643 30.3523,47.262 28.5367,49.1752ZM36.8342,22.1052C36.7009,21.3605 36.5296,19.9092 36.173,18.5044C35.5086,15.8921 34.2577,14.8331 31.5717,14.7345C28.2018,14.612 25.8096,16.4374 24.2108,19.1634C23.2407,20.8142 22.2912,22.6222 22.8852,24.7706C23.8195,28.1513 27.7238,30.3961 31.8601,29.8293C34.5016,29.4672 36.9924,25.9683 36.8342,22.1052Z" style="fill:white;"/>
        <path d="M36.8342,22.1052C36.9924,25.9683 34.5005,29.4672 31.8601,29.8293C27.7238,30.3961 23.8206,28.1513 22.8852,24.7706C22.2901,22.6233 23.2407,20.8153 24.2108,19.1634C25.8096,16.4374 28.2018,14.612 31.5717,14.7345C34.2577,14.8321 35.5086,15.8911 36.173,18.5044C36.5296,19.9092 36.702,21.3616 36.8342,22.1052ZM35.3384,22.3512C35.2506,21.522 35.1986,20.6863 35.0652,19.8647C34.5113,16.4493 32.4248,15.2721 29.2174,16.678C28.1964,17.1267 27.1883,17.802 26.4231,18.6085C24.4406,20.6972 23.9376,23.6964 25.0866,25.5022C26.2898,27.3948 29.5296,28.6066 31.7462,27.9952C33.8263,27.4219 35.4403,24.8833 35.3384,22.3512Z" style="fill:black;"/>
        <path d="M35.3384,22.3523C35.4403,24.8833 33.8252,27.4219 31.7462,27.9963C29.5307,28.6077 26.2898,27.3958 25.0866,25.5033C23.9376,23.6964 24.4406,20.6972 26.4231,18.6095C27.1894,17.8031 28.1964,17.1267 29.2174,16.6791C32.4237,15.2732 34.5103,16.4504 35.0652,19.8658C35.1986,20.6863 35.2506,21.522 35.3384,22.3523Z" style="fill:white;"/>
    </g>
</svg>
